<?xml version="1.0" encoding="UTF-8"?><svg id="Infografik" xmlns="http://www.w3.org/2000/svg" xmlns:xlink="http://www.w3.org/1999/xlink" viewBox="0 0 900 600"><defs><style>.cls-1,.cls-2{fill:#fff;}.cls-1,.cls-2,.cls-3,.cls-4,.cls-5,.cls-6,.cls-7,.cls-8{stroke-miterlimit:10;}.cls-1,.cls-3,.cls-4{stroke-width:5px;}.cls-1,.cls-6,.cls-8{stroke:#a7a7a7;}.cls-9{clip-path:url(#clippath);}.cls-10{fill:#e3e3e3;}.cls-11{fill:#f1f1f1;}.cls-12{fill:#ff9b00;}.cls-13{fill:#fd8a02;}.cls-14{fill:#fead4d;}.cls-15{fill:#737373;}.cls-16{fill:#939393;}.cls-2,.cls-3,.cls-5{stroke:#e3e3e3;}.cls-2,.cls-5,.cls-6{stroke-width:4px;}.cls-3,.cls-4,.cls-5,.cls-6,.cls-7,.cls-8{fill:none;}.cls-4{stroke:#fd8a02;}.cls-17{clip-path:url(#clippath-1);}.cls-18{clip-path:url(#clippath-2);}.cls-7{stroke:#fead4d;}.cls-8{stroke-width:7px;}</style><clipPath id="clippath"><path class="cls-14" d="M635,146.51c.62,0,1.24,.23,1.74,.58l-1.74,1.74-1.74-1.74c.5-.35,1.12-.58,1.74-.58Zm0-5.16c1.88,0,3.6,.66,4.98,1.87l-.67,.77c-1.2-1.05-2.68-1.62-4.31-1.62s-3.11,.57-4.31,1.62l-.67-.77c1.38-1.21,3.1-1.87,4.98-1.87Zm0-5.81c3.33,0,6.5,1.32,9.05,3.62l-.68,.76c-2.38-2.14-5.3-3.35-8.37-3.35s-6.09,1.18-8.36,3.35l-.7-.74c2.46-2.34,5.63-3.62,9.06-3.62Zm0-6.39c4.95,0,9.56,1.92,13.13,5.37l-.71,.73c-3.39-3.27-7.74-5.09-12.43-5.09s-9.18,1.84-12.42,5.08l-.72-.72c3.43-3.43,8.15-5.38,13.14-5.38Z"/></clipPath><clipPath id="clippath-1"><path class="cls-14" d="M635,240.34c.62,0,1.24,.23,1.74,.58l-1.74,1.74-1.74-1.74c.5-.35,1.12-.58,1.74-.58Zm0-5.16c1.88,0,3.6,.66,4.98,1.87l-.67,.77c-1.2-1.05-2.68-1.62-4.31-1.62s-3.11,.57-4.31,1.62l-.67-.77c1.38-1.21,3.1-1.87,4.98-1.87Zm0-5.81c3.33,0,6.5,1.32,9.05,3.62l-.68,.76c-2.38-2.14-5.3-3.35-8.37-3.35s-6.09,1.18-8.36,3.35l-.7-.74c2.46-2.34,5.63-3.62,9.06-3.62Zm0-6.39c4.95,0,9.56,1.92,13.13,5.37l-.71,.73c-3.39-3.27-7.74-5.09-12.43-5.09s-9.18,1.84-12.42,5.08l-.72-.72c3.43-3.43,8.15-5.38,13.14-5.38Z"/></clipPath><clipPath id="clippath-2"><path class="cls-14" d="M635,334.17c.62,0,1.24,.23,1.74,.58l-1.74,1.74-1.74-1.74c.5-.35,1.12-.58,1.74-.58Zm0-5.16c1.88,0,3.6,.66,4.98,1.87l-.67,.77c-1.2-1.05-2.68-1.62-4.31-1.62s-3.11,.57-4.31,1.62l-.67-.77c1.38-1.21,3.1-1.87,4.98-1.87Zm0-5.81c3.33,0,6.5,1.32,9.05,3.62l-.68,.76c-2.38-2.14-5.3-3.35-8.37-3.35s-6.09,1.18-8.36,3.35l-.7-.74c2.46-2.34,5.63-3.62,9.06-3.62Zm0-6.39c4.95,0,9.56,1.92,13.13,5.37l-.71,.73c-3.39-3.27-7.74-5.09-12.43-5.09s-9.18,1.84-12.42,5.08l-.72-.72c3.43-3.43,8.15-5.38,13.14-5.38Z"/></clipPath></defs><rect class="cls-11" x="40" y="373.7" width="820.56" height="118.51"/><g><path class="cls-15" d="M51.36,580.88c.6,.4,1.25,.69,1.97,.85l-.8,1.39c-.85-.22-1.64-.6-2.37-1.14s-1.34-1.21-1.84-1.99c-.5,.12-1.02,.18-1.56,.18-1.21,0-2.26-.28-3.16-.84-.9-.56-1.59-1.33-2.07-2.31-.48-.98-.72-2.09-.72-3.33s.24-2.37,.72-3.36,1.17-1.77,2.07-2.34,1.96-.85,3.16-.85,2.28,.28,3.17,.84c.9,.56,1.58,1.33,2.06,2.32,.48,.98,.72,2.09,.72,3.33s-.25,2.44-.74,3.45-1.2,1.78-2.12,2.31c.4,.59,.91,1.09,1.5,1.49Zm-8.44-4.51c.33,.76,.83,1.35,1.48,1.77s1.44,.62,2.36,.62,1.7-.21,2.35-.62c.65-.42,1.14-1.01,1.47-1.77,.33-.76,.49-1.65,.49-2.68,0-1.04-.17-1.94-.5-2.71-.33-.77-.82-1.37-1.46-1.79s-1.43-.63-2.35-.63-1.71,.21-2.36,.63-1.14,1.02-1.48,1.79c-.33,.77-.5,1.67-.5,2.71s.17,1.92,.5,2.68Z"/><path class="cls-15" d="M61.8,580.29c-.34-.61-.58-1.18-.72-1.72-.09,.24-.26,.48-.51,.72-.25,.24-.57,.44-.97,.61-.39,.16-.84,.25-1.35,.25-.83,0-1.49-.16-2-.48s-.87-.74-1.09-1.25c-.22-.51-.33-1.08-.33-1.69v-5.32h1.44v4.87c0,.77,.16,1.38,.48,1.85,.32,.46,.93,.7,1.82,.7,.66,0,1.21-.16,1.64-.47,.43-.31,.65-.84,.65-1.57v-5.38h1.44v5.66c0,.86,.26,1.75,.77,2.65l-1.28,.59Z"/><path class="cls-15" d="M70.51,578.69c.44-.09,.88-.22,1.32-.39l.45,1.23c-.42,.18-.94,.32-1.58,.44s-1.22,.18-1.74,.18c-1.38,0-2.46-.37-3.22-1.11-.76-.74-1.14-1.88-1.14-3.42,0-.96,.17-1.78,.51-2.45,.34-.67,.82-1.18,1.46-1.53s1.41-.52,2.3-.52c.79,0,1.45,.18,1.99,.55,.53,.37,.93,.84,1.19,1.43,.26,.59,.39,1.22,.39,1.89,0,.46-.06,.93-.19,1.39l-6.12,.04c.13,.79,.46,1.39,.98,1.79,.53,.4,1.25,.6,2.16,.6,.39,0,.81-.04,1.25-.13Zm-3.72-5.47c-.42,.48-.66,1.13-.72,1.94l4.75-.04c.01-.14,.02-.25,.02-.32,0-.4-.07-.77-.22-1.12-.15-.35-.38-.63-.71-.85-.33-.22-.74-.33-1.24-.33-.83,0-1.46,.24-1.88,.72Z"/><path class="cls-15" d="M74.63,566.63h1.44v13.32h-1.44v-13.32Z"/><path class="cls-15" d="M78.99,566.63h1.44v13.32h-1.44v-13.32Z"/><path class="cls-15" d="M88.65,578.69c.44-.09,.88-.22,1.32-.39l.45,1.23c-.42,.18-.94,.32-1.58,.44s-1.22,.18-1.74,.18c-1.38,0-2.46-.37-3.22-1.11-.76-.74-1.14-1.88-1.14-3.42,0-.96,.17-1.78,.51-2.45,.34-.67,.82-1.18,1.46-1.53s1.41-.52,2.3-.52c.79,0,1.45,.18,1.99,.55,.53,.37,.93,.84,1.19,1.43,.26,.59,.39,1.22,.39,1.89,0,.46-.06,.93-.19,1.39l-6.12,.04c.13,.79,.46,1.39,.98,1.79,.53,.4,1.25,.6,2.16,.6,.39,0,.81-.04,1.25-.13Zm-3.72-5.47c-.42,.48-.66,1.13-.72,1.94l4.76-.04c.01-.14,.02-.25,.02-.32,0-.4-.07-.77-.22-1.12-.15-.35-.38-.63-.71-.85-.33-.22-.74-.33-1.24-.33-.83,0-1.46,.24-1.88,.72Z"/><path class="cls-15" d="M92.43,573.12c-.22-.21-.33-.48-.33-.79s.11-.59,.33-.8c.22-.21,.5-.32,.83-.32s.61,.11,.84,.32c.22,.21,.33,.48,.33,.8s-.11,.58-.33,.79c-.22,.21-.5,.32-.84,.32s-.6-.11-.83-.32Zm0,6.71c-.22-.21-.33-.48-.33-.8s.11-.59,.33-.8c.22-.21,.5-.32,.83-.32s.61,.11,.84,.32c.22,.21,.33,.48,.33,.8s-.11,.58-.33,.8c-.22,.21-.5,.32-.84,.32s-.6-.11-.83-.32Z"/><path class="cls-15" d="M100.27,571.39h1.54l2.29,5.88c.05,.12,.11,.33,.19,.65,.08,.32,.12,.52,.13,.62h.04c.01-.12,.05-.34,.11-.64s.12-.5,.15-.59l2.39-5.91h1.58l-3.59,8.6h-1.42l-3.41-8.6Z"/><path class="cls-15" d="M115.51,578.69c.44-.09,.88-.22,1.32-.39l.45,1.23c-.42,.18-.94,.32-1.58,.44s-1.22,.18-1.74,.18c-1.38,0-2.46-.37-3.22-1.11-.76-.74-1.14-1.88-1.14-3.42,0-.96,.17-1.78,.51-2.45,.34-.67,.82-1.18,1.46-1.53s1.41-.52,2.3-.52c.79,0,1.45,.18,1.99,.55,.53,.37,.93,.84,1.19,1.43,.26,.59,.39,1.22,.39,1.89,0,.46-.06,.93-.19,1.39l-6.12,.04c.13,.79,.46,1.39,.98,1.79,.53,.4,1.25,.6,2.16,.6,.39,0,.81-.04,1.25-.13Zm-3.72-5.47c-.42,.48-.66,1.13-.72,1.94l4.75-.04c.01-.14,.02-.25,.02-.32,0-.4-.07-.77-.22-1.12-.15-.35-.38-.63-.71-.85-.33-.22-.74-.33-1.24-.33-.83,0-1.46,.24-1.88,.72Z"/><path class="cls-15" d="M123.24,571.17c.26,0,.54,.03,.83,.08l-.25,1.37c-.16-.02-.33-.03-.48-.03-.91,0-1.66,.28-2.26,.84v6.51h-1.44v-8.56h1.09l.19,.83c.6-.7,1.38-1.05,2.32-1.05Z"/><path class="cls-15" d="M125.93,568.43c-.19-.19-.28-.42-.28-.7s.09-.51,.28-.69,.42-.28,.7-.28,.51,.09,.69,.28,.28,.42,.28,.69-.09,.52-.28,.7-.42,.28-.69,.28-.52-.09-.7-.28Zm-.04,2.96h1.44v8.56h-1.44v-8.56Z"/><path class="cls-15" d="M128.93,571.39h1.54l2.29,5.88c.05,.12,.11,.33,.19,.65,.08,.32,.12,.52,.13,.62h.04c.01-.12,.05-.34,.11-.64s.12-.5,.15-.59l2.39-5.91h1.58l-3.59,8.6h-1.42l-3.41-8.6Z"/><path class="cls-15" d="M140.38,579.62c-.68-.37-1.2-.89-1.57-1.57-.37-.68-.56-1.46-.56-2.34s.19-1.69,.56-2.37c.37-.69,.9-1.21,1.57-1.59,.68-.38,1.46-.56,2.35-.56s1.64,.19,2.3,.56,1.17,.9,1.53,1.59c.36,.68,.53,1.47,.53,2.38,0,.89-.18,1.67-.54,2.35-.36,.67-.87,1.2-1.53,1.56-.66,.37-1.42,.55-2.29,.55s-1.67-.18-2.35-.55Zm3.81-1.22c.42-.26,.76-.62,.99-1.08,.24-.46,.36-1,.37-1.61-.01-.62-.14-1.17-.38-1.64s-.57-.84-.99-1.1c-.42-.26-.91-.39-1.46-.39-.59,0-1.1,.13-1.55,.39-.45,.26-.79,.63-1.04,1.11-.24,.47-.37,1.03-.37,1.65s.12,1.15,.37,1.61c.24,.46,.59,.82,1.03,1.07s.96,.38,1.55,.38c.55,0,1.04-.13,1.46-.38Z"/><path class="cls-15" d="M151.17,575.8l-2.85-4.41h1.65l2.11,3.43h.04l2.25-3.43h1.63l-2.94,4.29,2.88,4.27h-1.65l-2.17-3.34h-.04l-2.21,3.34h-1.69l2.98-4.15Z"/><path class="cls-15" d="M157.46,579.88c-.18-.18-.27-.42-.27-.72s.09-.54,.27-.72c.18-.18,.42-.27,.71-.27s.54,.09,.72,.27,.27,.42,.27,.72-.09,.54-.27,.72c-.18,.18-.42,.27-.72,.27s-.54-.09-.71-.27Z"/><path class="cls-15" d="M168.75,580.29c-.33-.6-.58-1.2-.74-1.78-.25,.54-.64,.95-1.17,1.22-.53,.28-1.2,.41-2,.41s-1.44-.18-2.02-.54c-.58-.36-1.03-.87-1.35-1.53-.32-.66-.48-1.42-.48-2.29,0-.92,.18-1.73,.54-2.43,.36-.7,.86-1.24,1.52-1.63,.65-.39,1.41-.58,2.27-.58s1.72,.3,2.51,.91v-5.46h1.44v10.43c0,.86,.26,1.75,.76,2.65l-1.27,.59Zm-1.6-2.25c.45-.49,.67-1.18,.67-2.07v-2.64c-.36-.32-.76-.54-1.18-.67s-.83-.19-1.21-.19c-.59,0-1.11,.13-1.54,.39-.43,.26-.77,.63-1,1.12-.23,.48-.35,1.06-.35,1.73,0,.5,.09,.99,.28,1.46s.48,.86,.88,1.16c.4,.3,.9,.45,1.49,.45,.86,0,1.51-.24,1.96-.73Z"/><path class="cls-15" d="M177.48,578.69c.44-.09,.88-.22,1.32-.39l.45,1.23c-.42,.18-.94,.32-1.58,.44s-1.22,.18-1.74,.18c-1.38,0-2.46-.37-3.22-1.11-.76-.74-1.14-1.88-1.14-3.42,0-.96,.17-1.78,.51-2.45,.34-.67,.82-1.18,1.46-1.53s1.41-.52,2.3-.52c.79,0,1.45,.18,1.99,.55,.53,.37,.93,.84,1.19,1.43,.26,.59,.39,1.22,.39,1.89,0,.46-.06,.93-.19,1.39l-6.12,.04c.13,.79,.46,1.39,.98,1.79,.53,.4,1.25,.6,2.16,.6,.39,0,.81-.04,1.25-.13Zm-3.72-5.47c-.42,.48-.66,1.13-.72,1.94l4.75-.04c.01-.14,.02-.25,.02-.32,0-.4-.07-.77-.22-1.12-.15-.35-.38-.63-.71-.85-.33-.22-.74-.33-1.24-.33-.83,0-1.46,.24-1.88,.72Z"/></g><g id="Text"><g><rect class="cls-16" x="805.24" y="563.47" width="3.71" height="16.2"/><path class="cls-12" d="M771.5,563.47l-5.28,14.24-.04,.11c-.44,1.14-1.47,1.99-2.72,2.16-.15,.02-.31,.03-.47,.03s-.33-.01-.49-.04c-1.22-.18-2.22-.99-2.67-2.09l-.09-.24-5.28-14.18h4.37l4.16,11.18,4.14-11.18h0l.39-1.08c.67-1.76-1.69-4.23-8.91-4.23s-9.88,3.04-9.59,6.51c.29,3.47,4.3,11.45,6.35,14.59,1.99,3.05,4.71,4.59,7.5,4.59s5.75-1.4,7.47-5.78c1.3-3.32,5.59-14.6,5.59-14.6h-4.43Z"/><path class="cls-16" d="M791.53,571.86c0,.34-.03,.64-.06,1.01h-11.91c.43,2.64,2.27,4.11,4.67,4.11,1.81,0,3.1-.67,4.39-1.93l2.18,1.93c-1.54,1.84-3.65,3.04-6.63,3.04-4.7,0-8.32-3.41-8.32-8.44,0-4.66,3.28-8.47,7.92-8.47,5.16,0,7.76,4.05,7.76,8.75Zm-3.68-1.44c-.25-2.39-1.66-4.26-4.11-4.26-2.27,0-3.87,1.75-4.21,4.26h8.32Z"/><path class="cls-16" d="M854.58,571.36l5.74-7.89h-3.96l-3.74,5.34-3.74-5.34h-4.05l5.74,7.98-5.95,8.22h3.96l3.96-5.68,3.99,5.68h4.05l-5.98-8.32Z"/><path class="cls-16" d="M844.78,571.57c0,4.66-3.79,8.45-8.45,8.45s-8.45-3.79-8.45-8.45,3.79-8.45,8.45-8.45c4.66,0,8.45,3.79,8.45,8.45Zm-3.29,0c0-2.84-2.31-5.16-5.16-5.16s-5.16,2.31-5.16,5.16,2.31,5.16,5.16,5.16,5.16-2.31,5.16-5.16Z"/><polygon class="cls-16" points="824.03 563.47 819.64 575.25 815.28 563.47 811.29 563.47 817.95 579.67 821.3 579.67 827.92 563.47 824.03 563.47"/><path class="cls-16" d="M794.05,570.85v8.82h3.72v-8.82c0-.1,0-.25,.03-.44,.12-.98,.72-2.98,3.66-3.22,.18-.01,.38-.02,.59-.02v-3.72c-.13,0-.25,0-.37,0-5.1,.16-7.5,3.73-7.61,7.13,0,.08,0,.17,0,.25Z"/></g></g><g><path class="cls-13" d="M40.86,24.3h12.95v3.95h-8.06v5.64h7.09v4.03h-7.09v8.78h-4.89V24.3Z"/><path class="cls-13" d="M61.88,28.34h-6.45v-4.03h17.81v4.03h-6.47v18.38h-4.89V28.34Z"/><path class="cls-13" d="M80.63,28.34h-6.45v-4.03h17.81v4.03h-6.47v18.38h-4.89V28.34Z"/><path class="cls-13" d="M94.99,24.3h4.88v9.09h9.59v-9.09h4.94v22.41h-4.94v-9.12h-9.59v9.12h-4.88V24.3Z"/><path class="cls-13" d="M141.78,40.35h-16v-3.44h16v3.44Z"/><path class="cls-13" d="M153.17,24.3h12.95v3.95h-8.06v5.64h7.09v4.03h-7.09v8.78h-4.89V24.3Z"/><path class="cls-13" d="M170.44,27.78c-.41-.23-.73-.56-.96-.97-.23-.41-.35-.87-.35-1.37s.12-.94,.35-1.34,.55-.73,.96-.96,.86-.35,1.36-.35,.95,.12,1.35,.35c.4,.23,.72,.55,.95,.96s.35,.85,.35,1.34-.12,.96-.34,1.37c-.23,.41-.55,.73-.95,.97s-.86,.35-1.36,.35-.95-.12-1.36-.35Zm-1.11,3.71h4.94v15.22h-4.94v-15.22Z"/><path class="cls-13" d="M191.73,32.04c1.07,.63,1.89,1.53,2.47,2.7,.58,1.16,.87,2.5,.87,4.02,0,1.7-.29,3.17-.86,4.41-.57,1.24-1.42,2.21-2.55,2.88-1.13,.68-2.51,1.02-4.13,1.02-2.12,0-3.47-.91-4.08-2.73l-.77,2.38h-4.22l-.03-23.69h4.94v10.17c.49-.57,1.15-1.07,1.97-1.48,.82-.42,1.71-.62,2.67-.62,1.42,0,2.66,.32,3.73,.95Zm-2.54,10.05c.53-.79,.8-1.91,.8-3.36,0-1.22-.3-2.16-.91-2.83-.6-.67-1.46-1-2.56-1-1.22,0-2.27,.44-3.16,1.33v.83l.02,1.72c0,1.43,.31,2.53,.93,3.32,.62,.79,1.49,1.18,2.62,1.18,.98,0,1.73-.4,2.27-1.19Z"/><path class="cls-13" d="M209.38,32.01c1.09,.65,1.9,1.5,2.43,2.55,.53,1.06,.79,2.21,.79,3.45,0,.86-.13,1.73-.39,2.61l-9.94,.08c.27,.76,.72,1.36,1.35,1.8,.63,.44,1.42,.66,2.37,.66,.7,0,1.44-.08,2.22-.23s1.56-.39,2.34-.69l.8,3.75c-.74,.31-1.68,.57-2.81,.78-1.14,.21-2.17,.31-3.09,.31-2.57,0-4.57-.66-5.99-1.98-1.42-1.32-2.13-3.35-2.13-6.09,0-1.71,.31-3.16,.95-4.35,.63-1.19,1.54-2.09,2.73-2.7,1.19-.61,2.62-.91,4.29-.91s3,.32,4.09,.97Zm-1.38,5.22c0-.68-.22-1.24-.66-1.68-.44-.44-1.14-.66-2.09-.66-.91,0-1.61,.24-2.12,.73-.51,.49-.84,1.17-1.01,2.03l5.86-.06c0-.08,.02-.2,.02-.36Z"/><path class="cls-13" d="M224.64,30.98c.5,0,1.06,.09,1.69,.27l-.44,4.78c-.29-.03-.58-.05-.86-.05-1.89,0-3.38,.67-4.48,2.02l-.03,8.72h-4.94l.03-15.22h4.27l.59,3.25c.83-2.51,2.22-3.77,4.17-3.77Z"/><path class="cls-13" d="M245.39,42.77c.42,0,.89-.04,1.42-.11v4.33c-.67,.06-1.35,.09-2.06,.09-2.24,0-3.87-.39-4.9-1.18-1.03-.79-1.54-1.94-1.54-3.46v-7.31h-2.61l.03-3.62h2.58v-5.47h4.8v5.45h3.7l-.03,3.62h-3.67v5c0,1.77,.76,2.66,2.28,2.66Z"/><path class="cls-13" d="M252.75,46.12c-1.3-.66-2.31-1.58-3.02-2.78-.71-1.2-1.07-2.58-1.07-4.16s.36-3.02,1.07-4.23c.71-1.22,1.72-2.16,3.02-2.83,1.3-.67,2.81-1,4.52-1s3.27,.33,4.59,1c1.32,.67,2.33,1.61,3.04,2.83,.71,1.22,1.06,2.63,1.05,4.23,0,1.58-.36,2.97-1.08,4.16-.72,1.19-1.73,2.12-3.04,2.77-1.31,.66-2.83,.98-4.55,.98s-3.21-.33-4.52-.98Zm6.53-3.53c.56-.32,1-.78,1.33-1.37,.32-.59,.49-1.27,.5-2.04-.02-.77-.19-1.45-.52-2.04-.32-.59-.77-1.04-1.33-1.36-.56-.32-1.21-.48-1.94-.48s-1.43,.16-2.02,.48c-.58,.32-1.03,.78-1.35,1.37-.32,.59-.48,1.27-.48,2.05s.16,1.45,.48,2.03c.32,.58,.77,1.03,1.35,1.35,.58,.32,1.25,.48,2.02,.48s1.39-.16,1.95-.48Z"/><path class="cls-13" d="M286.24,42.77c.42,0,.89-.04,1.42-.11v4.33c-.67,.06-1.35,.09-2.06,.09-2.24,0-3.87-.39-4.9-1.18-1.03-.79-1.54-1.94-1.54-3.46v-7.31h-2.61l.03-3.62h2.58v-5.47h4.8v5.45h3.7l-.03,3.62h-3.67v5c0,1.77,.76,2.66,2.28,2.66Z"/><path class="cls-13" d="M303.15,31.87c.89,.52,1.55,1.24,1.99,2.16,.44,.92,.66,1.97,.66,3.16v9.53h-4.91v-8.19c0-1.05-.23-1.91-.68-2.58-.45-.67-1.2-1-2.23-1-.97,0-1.84,.34-2.61,1.03v10.73h-4.94V23.01h4.94v9.69c1.17-1.07,2.67-1.61,4.5-1.61,1.29,0,2.38,.26,3.27,.78Z"/><path class="cls-13" d="M320.82,32.01c1.09,.65,1.9,1.5,2.43,2.55,.53,1.06,.79,2.21,.79,3.45,0,.86-.13,1.73-.39,2.61l-9.94,.08c.27,.76,.72,1.36,1.35,1.8,.63,.44,1.42,.66,2.37,.66,.7,0,1.44-.08,2.22-.23s1.56-.39,2.34-.69l.8,3.75c-.74,.31-1.68,.57-2.81,.78-1.14,.21-2.17,.31-3.09,.31-2.57,0-4.57-.66-5.99-1.98-1.42-1.32-2.13-3.35-2.13-6.09,0-1.71,.31-3.16,.95-4.35,.63-1.19,1.54-2.09,2.73-2.7,1.19-.61,2.62-.91,4.29-.91s3,.32,4.09,.97Zm-1.38,5.22c0-.68-.22-1.24-.66-1.68-.44-.44-1.14-.66-2.09-.66-.91,0-1.61,.24-2.12,.73-.51,.49-.84,1.17-1.01,2.03l5.86-.06c0-.08,.02-.2,.02-.36Z"/><path class="cls-13" d="M348.56,31.87c.89,.52,1.55,1.24,1.99,2.16,.44,.92,.66,1.97,.66,3.16v9.53h-4.91v-8.19c0-1.05-.23-1.91-.68-2.58-.45-.67-1.2-1-2.23-1-.97,0-1.84,.34-2.61,1.03v10.73h-4.94V23.01h4.94v9.69c1.17-1.07,2.67-1.61,4.5-1.61,1.29,0,2.38,.26,3.27,.78Z"/><path class="cls-13" d="M358.27,46.12c-1.3-.66-2.31-1.58-3.02-2.78-.71-1.2-1.07-2.58-1.07-4.16s.36-3.02,1.07-4.23c.71-1.22,1.72-2.16,3.02-2.83,1.3-.67,2.81-1,4.52-1s3.27,.33,4.59,1c1.32,.67,2.33,1.61,3.04,2.83,.71,1.22,1.06,2.63,1.05,4.23,0,1.58-.36,2.97-1.08,4.16-.72,1.19-1.73,2.12-3.04,2.77-1.31,.66-2.83,.98-4.55,.98s-3.21-.33-4.52-.98Zm6.53-3.53c.56-.32,1-.78,1.33-1.37,.32-.59,.49-1.27,.5-2.04-.02-.77-.19-1.45-.52-2.04-.32-.59-.77-1.04-1.33-1.36-.56-.32-1.21-.48-1.94-.48s-1.43,.16-2.02,.48c-.58,.32-1.03,.78-1.35,1.37-.32,.59-.48,1.27-.48,2.05s.16,1.45,.48,2.03c.32,.58,.77,1.03,1.35,1.35,.58,.32,1.25,.48,2.02,.48s1.39-.16,1.95-.48Z"/><path class="cls-13" d="M397.42,31.87c.88,.52,1.55,1.24,1.98,2.16,.44,.92,.66,1.97,.67,3.16v9.53h-4.91v-8.81c.05-.85-.12-1.56-.5-2.12-.39-.56-1.03-.84-1.94-.84-.62,0-1.17,.06-1.66,.2-.49,.13-.94,.33-1.36,.6,.07,.53,.11,1.01,.11,1.44v9.53h-4.91v-8.81c-.01-.88-.2-1.59-.57-2.13-.37-.55-.98-.82-1.82-.82-.59,0-1.12,.12-1.56,.36-.45,.24-.89,.62-1.33,1.16l-.03,10.25h-4.94l.03-15.22h4.27l.55,1.7c.79-.75,1.53-1.29,2.22-1.62s1.53-.49,2.53-.49c.92,0,1.73,.15,2.43,.46,.7,.31,1.29,.74,1.77,1.3,.86-.56,1.74-1,2.63-1.3,.89-.31,1.91-.46,3.05-.46,1.29,0,2.38,.26,3.27,.78Z"/><path class="cls-13" d="M415.1,32.01c1.09,.65,1.9,1.5,2.43,2.55,.53,1.06,.79,2.21,.79,3.45,0,.86-.13,1.73-.39,2.61l-9.94,.08c.27,.76,.72,1.36,1.35,1.8,.63,.44,1.42,.66,2.37,.66,.7,0,1.44-.08,2.22-.23s1.56-.39,2.34-.69l.8,3.75c-.74,.31-1.68,.57-2.81,.78-1.14,.21-2.17,.31-3.09,.31-2.57,0-4.57-.66-5.99-1.98-1.42-1.32-2.13-3.35-2.13-6.09,0-1.71,.31-3.16,.95-4.35,.63-1.19,1.54-2.09,2.73-2.7,1.19-.61,2.62-.91,4.29-.91s3,.32,4.09,.97Zm-1.38,5.22c0-.68-.22-1.24-.66-1.68-.44-.44-1.14-.66-2.09-.66-.91,0-1.61,.24-2.12,.73-.51,.49-.84,1.17-1.01,2.03l5.86-.06c0-.08,.02-.2,.02-.36Z"/></g><g><path class="cls-15" d="M43.19,82.34c-1.24-.67-2.21-1.64-2.9-2.91s-1.04-2.79-1.04-4.55c0-1.85,.39-3.45,1.17-4.78s1.86-2.36,3.24-3.06,2.97-1.05,4.77-1.05c.77,0,1.58,.05,2.46,.16s1.7,.23,2.48,.38l-.88,2.71c-.55-.1-1.18-.2-1.9-.29s-1.4-.14-2.05-.14c-1.25,0-2.32,.23-3.21,.7s-1.57,1.14-2.03,2.03-.7,1.96-.7,3.22,.21,2.28,.63,3.17,1.03,1.56,1.82,2.03,1.75,.7,2.86,.7c.52,0,1.02-.06,1.49-.18s.88-.29,1.22-.52v-3.61h-3.33v-2.54h6.4v8.11c-.88,.45-1.87,.8-2.96,1.05s-2.19,.38-3.29,.38c-1.59,0-3.01-.33-4.25-1Z"/><path class="cls-15" d="M56.25,65.31h3.11v17.77h-3.11v-17.77Z"/><path class="cls-15" d="M69.76,83.54c-.38-.78-.66-1.56-.86-2.34-.15,.39-.4,.75-.76,1.08s-.78,.59-1.26,.79-.97,.29-1.46,.29c-.8,0-1.51-.12-2.14-.36s-1.13-.62-1.49-1.12-.55-1.14-.55-1.9,.2-1.47,.59-2.04,.96-1.02,1.68-1.32,1.58-.46,2.55-.46c.88,0,1.75,.21,2.61,.62v-.75c0-.72-.19-1.24-.56-1.58s-.93-.5-1.65-.5c-.39,0-.95,.04-1.67,.12s-1.39,.19-2.01,.32l-.33-2.55c1.1-.16,1.96-.27,2.59-.35s1.15-.11,1.57-.11c1.65,0,2.9,.38,3.76,1.12s1.29,1.87,1.29,3.35l.02,3.38c0,1.15,.3,2.33,.87,3.54l-2.8,.79Zm-2.31-2.82c.39-.19,.7-.45,.91-.78s.32-.7,.32-1.1c-.72-.22-1.49-.33-2.32-.33-.66,0-1.19,.12-1.57,.36s-.57,.57-.56,.99c0,.34,.17,.61,.52,.83s.79,.32,1.35,.32c.51,0,.96-.1,1.35-.29Z"/><path class="cls-15" d="M73.38,82.46l.79-2.51c1.26,.56,2.33,.85,3.22,.87,1.26,0,1.89-.4,1.9-1.17,0-.27-.09-.49-.27-.66s-.4-.3-.67-.4-.64-.21-1.11-.32c-.72-.19-1.3-.38-1.75-.57s-.84-.51-1.17-.95-.5-1.03-.5-1.78c.02-2.4,1.46-3.6,4.31-3.6,1.46,0,2.72,.23,3.79,.7l-.67,2.55c-1.05-.42-2.01-.63-2.88-.63-.52,0-.9,.08-1.15,.21s-.39,.36-.41,.68c0,.2,.08,.36,.23,.5s.35,.25,.59,.34,.57,.2,1,.32c.73,.2,1.33,.42,1.82,.64s.9,.57,1.26,1.03,.53,1.08,.53,1.86c0,2.54-1.61,3.81-4.84,3.81-1.29,0-2.62-.31-4.01-.91Z"/><path class="cls-15" d="M88.64,68.01c-.23,.14-.39,.35-.47,.62s-.13,.63-.13,1.08v1.95h2.75s0,2.38,0,2.38h-2.75v9.02h-3.09v-9.02h-2.02v-2.37h2.02v-1.84c0-1.47,.33-2.62,1-3.46s1.84-1.26,3.54-1.26c.27,0,.77,.04,1.5,.12l.49,.06-.48,2.61-.6-.05c-.38-.03-.63-.05-.76-.05-.43,0-.76,.07-.99,.21Z"/><path class="cls-15" d="M99.71,83.54c-.38-.78-.66-1.56-.86-2.34-.15,.39-.4,.75-.76,1.08s-.78,.59-1.26,.79-.97,.29-1.46,.29c-.8,0-1.51-.12-2.14-.36s-1.13-.62-1.49-1.12-.55-1.14-.55-1.9,.2-1.47,.59-2.04,.96-1.02,1.68-1.32,1.58-.46,2.55-.46c.88,0,1.75,.21,2.61,.62v-.75c0-.72-.19-1.24-.56-1.58s-.93-.5-1.65-.5c-.39,0-.95,.04-1.67,.12s-1.39,.19-2.01,.32l-.33-2.55c1.1-.16,1.96-.27,2.59-.35s1.15-.11,1.57-.11c1.65,0,2.9,.38,3.76,1.12s1.29,1.87,1.29,3.35l.02,3.38c0,1.15,.3,2.33,.87,3.54l-2.8,.79Zm-2.31-2.82c.39-.19,.7-.45,.91-.78s.32-.7,.32-1.1c-.72-.22-1.49-.33-2.32-.33-.66,0-1.19,.12-1.57,.36s-.57,.57-.56,.99c0,.34,.17,.61,.52,.83s.79,.32,1.35,.32c.51,0,.96-.1,1.35-.29Z"/><path class="cls-15" d="M103.33,82.46l.79-2.51c1.26,.56,2.33,.85,3.22,.87,1.26,0,1.89-.4,1.9-1.17,0-.27-.09-.49-.27-.66s-.4-.3-.67-.4-.64-.21-1.11-.32c-.72-.19-1.3-.38-1.75-.57s-.84-.51-1.17-.95-.5-1.03-.5-1.78c.02-2.4,1.46-3.6,4.31-3.6,1.46,0,2.72,.23,3.79,.7l-.67,2.55c-1.05-.42-2.01-.63-2.88-.63-.52,0-.9,.08-1.15,.21s-.39,.36-.41,.68c0,.2,.08,.36,.23,.5s.35,.25,.59,.34,.57,.2,1,.32c.73,.2,1.33,.42,1.82,.64s.9,.57,1.26,1.03,.53,1.08,.53,1.86c0,2.54-1.61,3.81-4.84,3.81-1.29,0-2.62-.31-4.01-.91Z"/><path class="cls-15" d="M122.05,72.06c.79,.49,1.37,1.13,1.74,1.92s.56,1.64,.56,2.57c0,.62-.09,1.26-.28,1.91l-7.7,.06c.2,.73,.57,1.29,1.12,1.69s1.27,.6,2.15,.6c.52,0,1.08-.06,1.66-.18s1.17-.29,1.76-.52l.6,2.43c-.55,.23-1.26,.43-2.11,.59s-1.62,.23-2.32,.23c-1.9,0-3.37-.49-4.42-1.48s-1.58-2.51-1.58-4.56c0-1.28,.23-2.37,.7-3.26s1.14-1.57,2.02-2.03,1.94-.69,3.17-.69,2.15,.24,2.94,.73Zm-.7,4.01c0-.62-.19-1.15-.57-1.58s-.97-.64-1.78-.64-1.44,.23-1.89,.69-.73,1.08-.84,1.88l5.06-.05c0-.07,.01-.17,.01-.3Z"/><path class="cls-15" d="M132.37,71.31c.4,0,.8,.05,1.21,.16l-.33,3c-.22-.02-.43-.04-.63-.04-1.34,0-2.43,.46-3.26,1.37v7.27h-3.13l.02-11.41h2.61l.39,1.96c.69-1.54,1.73-2.31,3.12-2.31Z"/><path class="cls-15" d="M150.35,72.08c.79,.48,1.39,1.15,1.81,2.02s.63,1.88,.63,3.02c0,1.27-.21,2.38-.64,3.31s-1.06,1.65-1.9,2.16-1.87,.76-3.08,.76c-1.66,0-2.73-.67-3.21-2.02l-.56,1.75h-2.58l-.02-17.77h3.12v7.68c.41-.47,.93-.86,1.56-1.17s1.33-.46,2.08-.46c1.08,0,2.01,.24,2.8,.71Zm-1.49,7.81c.47-.64,.71-1.58,.71-2.79,0-.99-.25-1.77-.74-2.34s-1.19-.85-2.09-.85c-.56,0-1.06,.09-1.51,.26s-.88,.45-1.32,.83v2.48c.01,.76,.15,1.39,.42,1.89s.64,.88,1.09,1.12,.95,.36,1.5,.36c.82,0,1.47-.32,1.94-.97Z"/><path class="cls-15" d="M155.48,68.56c-.27-.16-.48-.37-.64-.64s-.23-.57-.23-.91,.08-.63,.23-.9,.37-.48,.64-.63,.57-.23,.91-.23,.63,.08,.9,.23,.48,.36,.63,.63,.23,.57,.23,.9-.08,.64-.23,.91-.36,.48-.63,.64-.57,.23-.9,.23-.64-.08-.91-.23Zm-.66,3.11h3.11v11.41h-3.11v-11.41Z"/><path class="cls-15" d="M159.87,82.46l.79-2.51c1.26,.56,2.33,.85,3.22,.87,1.26,0,1.89-.4,1.9-1.17,0-.27-.09-.49-.27-.66s-.4-.3-.67-.4-.64-.21-1.11-.32c-.72-.19-1.3-.38-1.75-.57s-.84-.51-1.17-.95-.5-1.03-.5-1.78c.02-2.4,1.46-3.6,4.31-3.6,1.46,0,2.72,.23,3.79,.7l-.67,2.55c-1.05-.42-2.01-.63-2.88-.63-.52,0-.9,.08-1.15,.21s-.39,.36-.41,.68c0,.2,.08,.36,.23,.5s.35,.25,.59,.34,.57,.2,1,.32c.73,.2,1.33,.42,1.82,.64s.9,.57,1.26,1.03,.53,1.08,.53,1.86c0,2.54-1.61,3.81-4.84,3.81-1.29,0-2.62-.31-4.01-.91Z"/><path class="cls-15" d="M177.2,68.56c-.27-.16-.48-.37-.64-.64s-.23-.57-.23-.91,.08-.63,.23-.9,.37-.48,.64-.63,.57-.23,.91-.23,.63,.08,.9,.23,.48,.36,.63,.63,.23,.57,.23,.9-.08,.64-.23,.91-.36,.48-.63,.64-.57,.23-.9,.23-.64-.08-.91-.23Zm-.66,3.11h3.11v11.41h-3.11v-11.41Z"/><path class="cls-15" d="M191.42,71.95c.67,.39,1.17,.93,1.51,1.62s.5,1.48,.5,2.37v7.15h-3.09v-6.29c0-.85-.18-1.54-.54-2.08s-.96-.8-1.8-.8c-.46,0-.9,.08-1.31,.25s-.79,.41-1.12,.72l-.02,8.2h-3.11l.02-11.41h2.6l.34,1.08c.9-.92,2.08-1.38,3.55-1.38,.98,0,1.81,.2,2.48,.59Z"/><path class="cls-15" d="M211.3,83.54c-.41-.84-.69-1.63-.86-2.37-.64,1.45-1.91,2.18-3.81,2.18-1.16,0-2.13-.24-2.93-.71s-1.4-1.15-1.8-2.02-.61-1.89-.61-3.07,.25-2.31,.74-3.24,1.19-1.66,2.1-2.17,1.95-.77,3.14-.77c1.05,0,2.03,.31,2.95,.93v-7h3.05v12.97c0,.68,.05,1.27,.14,1.77s.21,.94,.36,1.31,.35,.81,.6,1.31l-3.07,.87Zm-1.89-3.61c.53-.59,.8-1.41,.8-2.47h.01s0-2.74,0-2.74c-.41-.28-.86-.49-1.35-.64s-.97-.22-1.45-.22c-.91,0-1.63,.31-2.14,.94s-.77,1.5-.77,2.62c0,1,.22,1.81,.67,2.44s1.09,.94,1.93,.94c1.01,0,1.78-.29,2.31-.88Z"/><path class="cls-15" d="M216.7,68.56c-.27-.16-.48-.37-.64-.64s-.23-.57-.23-.91,.08-.63,.23-.9,.37-.48,.64-.63,.57-.23,.91-.23,.63,.08,.9,.23,.48,.36,.63,.63,.23,.57,.23,.9-.08,.64-.23,.91-.36,.48-.63,.64-.57,.23-.9,.23-.64-.08-.91-.23Zm-.66,3.11h3.11v11.41h-3.11v-11.41Z"/><path class="cls-15" d="M229.99,72.06c.79,.49,1.37,1.13,1.74,1.92s.56,1.64,.56,2.57c0,.62-.09,1.26-.28,1.91l-7.7,.06c.2,.73,.57,1.29,1.12,1.69s1.27,.6,2.15,.6c.52,0,1.08-.06,1.66-.18s1.17-.29,1.76-.52l.6,2.43c-.55,.23-1.26,.43-2.11,.59s-1.62,.23-2.32,.23c-1.9,0-3.37-.49-4.42-1.48s-1.58-2.51-1.58-4.56c0-1.28,.23-2.37,.7-3.26s1.14-1.57,2.02-2.03,1.94-.69,3.17-.69,2.15,.24,2.94,.73Zm-.7,4.01c0-.62-.19-1.15-.57-1.58s-.97-.64-1.78-.64-1.44,.23-1.89,.69-.73,1.08-.84,1.88l5.06-.05c0-.07,.01-.17,.01-.3Z"/><path class="cls-15" d="M238.72,66.28h3.4l2.81,11.78c.17,.76,.27,1.32,.28,1.69h.06c.02-.19,.07-.45,.15-.77s.15-.63,.23-.91l3.34-11.78h3.18l3.08,11.87c.13,.55,.23,1.08,.28,1.57h.05c0-.16,.05-.41,.12-.73s.14-.62,.2-.89l2.74-11.82h3.16l-4.55,16.8h-3.48l-3.06-11.48c-.06-.25-.12-.54-.18-.86s-.09-.61-.09-.85h-.05c-.05,.55-.15,1.12-.3,1.69l-3.18,11.51h-3.6l-4.59-16.8Z"/><path class="cls-15" d="M265.38,82.63c-.95-.49-1.69-1.19-2.21-2.09s-.79-1.94-.79-3.12,.26-2.26,.79-3.18,1.26-1.62,2.21-2.12,2.05-.75,3.3-.75,2.36,.25,3.32,.75,1.69,1.21,2.2,2.12,.76,1.97,.76,3.18c0,1.19-.26,2.23-.78,3.12s-1.25,1.59-2.2,2.08-2.04,.74-3.29,.74-2.35-.25-3.3-.74Zm4.96-2.31c.47-.27,.84-.66,1.11-1.16s.4-1.08,.41-1.73c-.02-.66-.16-1.25-.43-1.75s-.64-.89-1.11-1.17-1.01-.42-1.62-.42c-.64,0-1.21,.14-1.69,.42s-.87,.68-1.14,1.18-.4,1.09-.4,1.76,.13,1.23,.4,1.73,.65,.88,1.14,1.15,1.05,.4,1.69,.4,1.16-.14,1.63-.41Z"/><path class="cls-15" d="M286,71.95c.67,.39,1.17,.93,1.51,1.62s.5,1.48,.5,2.37v7.15h-3.09v-6.29c0-.85-.18-1.54-.54-2.08s-.96-.8-1.8-.8c-.46,0-.9,.09-1.32,.26s-.8,.41-1.14,.73v8.19h-3.11v-17.78h3.11v7.31c.88-.84,2.02-1.25,3.41-1.25,.98,0,1.81,.2,2.48,.59Z"/><path class="cls-15" d="M299.56,71.95c.67,.39,1.17,.93,1.51,1.62s.5,1.48,.5,2.37v7.15h-3.09v-6.29c0-.85-.18-1.54-.54-2.08s-.96-.8-1.8-.8c-.46,0-.9,.08-1.31,.25s-.79,.41-1.12,.72l-.02,8.2h-3.11l.02-11.41h2.6l.34,1.08c.9-.92,2.08-1.38,3.55-1.38,.98,0,1.81,.2,2.48,.59Z"/><path class="cls-15" d="M313.03,83.54c-.36-.73-.63-1.44-.81-2.13-.11,.28-.32,.57-.62,.87s-.71,.55-1.23,.76-1.12,.31-1.8,.31c-1.12,0-2.02-.21-2.71-.64s-1.18-.99-1.47-1.67-.44-1.44-.44-2.26v-7.09h3.11v6.49c0,.84,.17,1.51,.5,2.01s.97,.76,1.9,.76c.45,0,.87-.11,1.25-.33s.68-.55,.9-.97,.33-.92,.33-1.49v-6.47h3.06v6.61c0,.68,.04,1.27,.13,1.77s.21,.94,.35,1.31,.35,.81,.6,1.31l-3.06,.87Z"/><path class="cls-15" d="M326.77,71.95c.67,.39,1.17,.93,1.51,1.62s.5,1.48,.5,2.37v7.15h-3.09v-6.29c0-.85-.18-1.54-.54-2.08s-.96-.8-1.8-.8c-.46,0-.9,.08-1.31,.25s-.79,.41-1.12,.72l-.02,8.2h-3.11l.02-11.41h2.6l.34,1.08c.9-.92,2.08-1.38,3.55-1.38,.98,0,1.81,.2,2.48,.59Z"/><path class="cls-15" d="M342.63,71.67v11.41c-.01,1.92-.76,3.34-2.25,4.25s-3.59,1.38-6.3,1.39l-.22-2.71c1.39-.05,2.5-.22,3.33-.49s1.44-.66,1.81-1.16,.56-1.15,.56-1.94v-.7c-.7,1.08-1.89,1.62-3.59,1.62-1.07,0-2.01-.24-2.82-.72s-1.44-1.16-1.88-2.03-.67-1.89-.67-3.05c0-1.23,.25-2.31,.74-3.24s1.2-1.66,2.1-2.17,1.96-.77,3.15-.77c1.12,0,2.2,.38,3.23,1.15l.2-.84h2.59Zm-3.07,6.12c0-1.66,0-2.75,.01-3.27-.42-.26-.87-.44-1.33-.54s-.91-.16-1.33-.16c-.62,0-1.17,.14-1.63,.43s-.82,.71-1.07,1.25-.38,1.19-.38,1.93c0,.55,.1,1.09,.29,1.61s.5,.95,.91,1.28,.93,.5,1.55,.5c.96,0,1.7-.26,2.2-.79s.76-1.28,.76-2.24h0Z"/></g><line class="cls-3" x1="40" y1="376.12" x2="860.56" y2="376.12"/><rect class="cls-5" x="76.43" y="326.65" width="71" height="49.46"/><polyline class="cls-4" points="111.93 378.54 111.93 426.14 325.49 426.14 325.49 378.54"/><polygon class="cls-1" points="782.5 107.84 650.97 51.1 519.45 107.81 519.45 471.72 782.5 471.72 782.5 107.84"/><polyline class="cls-4" points="342.38 378.54 342.38 426.14 823.91 426.14 823.91 136.5"/><g><path class="cls-15" d="M107.89,343.23h2.67l3.1,9.77c.15,.45,.24,.84,.28,1.18h.04c.02-.17,.07-.37,.12-.58,.06-.21,.12-.42,.19-.63l3.19-9.75h2.58s-4.71,13.31-4.71,13.31h-2.81l-4.65-13.3Z"/><path class="cls-15" d="M123.09,356.44c-.64-.17-1.37-.44-2.19-.83l.85-2.19c.72,.37,1.33,.62,1.83,.75,.49,.14,1,.21,1.53,.21,.82,0,1.41-.15,1.79-.46,.38-.31,.57-.72,.57-1.23,0-.31-.1-.57-.31-.8-.21-.22-.47-.41-.78-.56-.31-.15-.75-.33-1.32-.55-.79-.3-1.44-.58-1.94-.85-.5-.27-.93-.65-1.28-1.14-.36-.49-.53-1.11-.53-1.87,0-.88,.22-1.61,.65-2.2,.43-.59,1-1.02,1.72-1.29s1.5-.41,2.36-.41c.62,0,1.21,.06,1.76,.18,.55,.12,1.09,.29,1.63,.51l-.79,2.13-.23-.08c-.38-.15-.74-.26-1.08-.34s-.74-.12-1.21-.12c-.61,0-1.12,.12-1.55,.36-.43,.24-.64,.62-.64,1.13,0,.27,.09,.5,.27,.7,.18,.2,.41,.37,.7,.51,.28,.14,.68,.31,1.18,.51,.79,.32,1.43,.62,1.94,.9,.51,.28,.94,.69,1.31,1.22,.37,.53,.55,1.2,.55,2.01s-.19,1.55-.56,2.16c-.38,.61-.92,1.08-1.63,1.41-.71,.33-1.57,.49-2.57,.49-.71,0-1.39-.08-2.02-.25Z"/><path class="cls-15" d="M135.3,354.12c.22,.31,.59,.47,1.11,.47,.25,0,.53-.02,.84-.06v2.17c-.4,.04-.8,.06-1.22,.06-1.17,0-2.03-.24-2.6-.73-.56-.49-.84-1.16-.84-2.03v-4.61h-1.58v-1.88h1.58v-3.25h2.38v3.25c.54,0,1.02,0,1.45,0h.84v1.88h-.85c-.42,0-.9,0-1.44,0v3.6c0,.45,.11,.82,.33,1.14Z"/></g><g><path class="cls-15" d="M76.46,186.99c-.9-.5-1.59-1.22-2.06-2.17-.47-.95-.71-2.09-.71-3.43,0-1.41,.26-2.61,.77-3.61s1.26-1.76,2.23-2.28c.98-.52,2.15-.78,3.53-.78,.54,0,1.11,.04,1.72,.12,.61,.08,1.19,.17,1.74,.29l-.48,1.3c-.43-.08-.93-.15-1.5-.22s-1.11-.11-1.63-.11c-1.02,0-1.89,.2-2.62,.61s-1.27,1-1.65,1.78c-.38,.78-.57,1.71-.57,2.81s.18,2.01,.54,2.78,.89,1.35,1.59,1.75c.7,.4,1.54,.6,2.52,.6,.47,0,.93-.05,1.38-.15s.84-.25,1.19-.44v-3.45h-3.2v-1.34h4.68v5.61c-.59,.34-1.26,.6-1.99,.79-.74,.19-1.48,.28-2.22,.28-1.27,0-2.36-.25-3.26-.75Z"/><path class="cls-15" d="M86.66,174.21h1.44v13.32h-1.44v-13.32Z"/><path class="cls-15" d="M96.97,187.88c-.32-.56-.57-1.14-.73-1.74-.1,.29-.29,.56-.58,.81s-.63,.44-1.03,.58-.8,.21-1.21,.21c-.58,0-1.1-.09-1.56-.27s-.82-.46-1.09-.84-.4-.86-.4-1.42,.14-1.03,.41-1.44c.28-.41,.67-.72,1.17-.94,.51-.22,1.1-.33,1.77-.33,.81,0,1.58,.21,2.31,.62v-.9c0-.7-.16-1.22-.49-1.54s-.81-.48-1.46-.48c-.25,0-.6,.02-1.06,.06-.46,.04-.89,.09-1.29,.15l-.25-1.44c.71-.08,1.28-.14,1.68-.18s.75-.05,1.02-.05c1.07,0,1.88,.28,2.43,.84s.83,1.4,.83,2.51l.02,2.53c0,.86,.26,1.75,.76,2.65l-1.27,.59Zm-2.02-1.72c.35-.16,.61-.38,.8-.68,.19-.29,.29-.63,.29-1.01v-.08c-.29-.16-.62-.29-.98-.38-.36-.09-.73-.14-1.12-.14-.63,0-1.13,.11-1.5,.33-.38,.22-.56,.52-.56,.91,0,.25,.08,.47,.23,.67,.15,.19,.37,.34,.65,.45s.61,.16,.98,.16c.46,0,.86-.08,1.2-.24Z"/><path class="cls-15" d="M99.48,187.07l.47-1.29c.94,.42,1.75,.64,2.42,.65,1.22-.02,1.83-.42,1.84-1.2,0-.28-.08-.5-.23-.68-.16-.18-.35-.32-.58-.42-.23-.11-.55-.22-.95-.35-.53-.17-.97-.34-1.3-.51-.33-.17-.62-.42-.86-.75-.24-.33-.36-.78-.36-1.33,.02-1.64,1.02-2.46,3-2.46,.91,0,1.7,.16,2.37,.47l-.5,1.31c-.67-.3-1.3-.45-1.87-.45-1.05,.01-1.59,.39-1.63,1.13,0,.22,.07,.41,.21,.55s.31,.27,.52,.36c.21,.09,.5,.2,.87,.32,.56,.18,1.01,.35,1.37,.53,.35,.18,.66,.45,.92,.82s.39,.85,.39,1.45c0,1.69-1.07,2.53-3.2,2.53-.93,0-1.89-.23-2.89-.69Z"/><path class="cls-15" d="M110.25,175.71c-.17,.15-.29,.37-.36,.66-.06,.29-.1,.67-.1,1.14v1.46h2.1s0,1.27,0,1.27h-2.1v7.29h-1.44v-7.29h-1.54v-1.26h1.54v-1.38c0-1.1,.18-1.97,.55-2.6s1.03-.95,1.97-.95c.2,0,.57,.03,1.12,.09l.37,.04-.32,1.41c-.22-.02-.35-.04-.41-.04-.29-.04-.5-.06-.65-.06-.32,0-.57,.08-.74,.22Z"/><path class="cls-15" d="M119.4,187.88c-.32-.56-.57-1.14-.73-1.74-.1,.29-.29,.56-.58,.81s-.63,.44-1.03,.58-.8,.21-1.21,.21c-.58,0-1.1-.09-1.56-.27s-.82-.46-1.09-.84-.4-.86-.4-1.42,.14-1.03,.41-1.44c.28-.41,.67-.72,1.17-.94,.51-.22,1.1-.33,1.77-.33,.81,0,1.58,.21,2.31,.62v-.9c0-.7-.16-1.22-.49-1.54s-.81-.48-1.46-.48c-.25,0-.6,.02-1.06,.06-.46,.04-.89,.09-1.29,.15l-.25-1.44c.71-.08,1.28-.14,1.68-.18s.75-.05,1.02-.05c1.07,0,1.88,.28,2.43,.84s.83,1.4,.83,2.51l.02,2.53c0,.86,.26,1.75,.76,2.65l-1.27,.59Zm-2.02-1.72c.35-.16,.61-.38,.8-.68,.19-.29,.29-.63,.29-1.01v-.08c-.29-.16-.62-.29-.98-.38-.36-.09-.73-.14-1.12-.14-.63,0-1.13,.11-1.5,.33-.38,.22-.56,.52-.56,.91,0,.25,.08,.47,.23,.67,.15,.19,.37,.34,.65,.45s.61,.16,.98,.16c.46,0,.86-.08,1.2-.24Z"/><path class="cls-15" d="M121.91,187.07l.47-1.29c.94,.42,1.75,.64,2.42,.65,1.22-.02,1.83-.42,1.84-1.2,0-.28-.08-.5-.23-.68-.16-.18-.35-.32-.58-.42-.23-.11-.55-.22-.95-.35-.53-.17-.97-.34-1.3-.51-.33-.17-.62-.42-.86-.75-.24-.33-.36-.78-.36-1.33,.02-1.64,1.02-2.46,3-2.46,.91,0,1.7,.16,2.37,.47l-.5,1.31c-.67-.3-1.3-.45-1.87-.45-1.05,.01-1.59,.39-1.63,1.13,0,.22,.07,.41,.21,.55s.31,.27,.52,.36c.21,.09,.5,.2,.87,.32,.56,.18,1.01,.35,1.37,.53,.35,.18,.66,.45,.92,.82s.39,.85,.39,1.45c0,1.69-1.07,2.53-3.2,2.53-.93,0-1.89-.23-2.89-.69Z"/><path class="cls-15" d="M135.55,186.28c.44-.09,.88-.22,1.32-.39l.45,1.23c-.42,.18-.94,.32-1.58,.44s-1.22,.18-1.74,.18c-1.38,0-2.46-.37-3.22-1.11-.76-.74-1.14-1.88-1.14-3.42,0-.96,.17-1.78,.51-2.45,.34-.67,.82-1.18,1.46-1.52s1.41-.52,2.3-.52c.79,0,1.45,.18,1.99,.55,.53,.37,.93,.84,1.19,1.43,.26,.59,.39,1.22,.39,1.89,0,.46-.06,.93-.19,1.39l-6.12,.04c.13,.79,.46,1.39,.98,1.79s1.25,.6,2.16,.6c.39,0,.81-.04,1.25-.13Zm-3.72-5.47c-.42,.48-.66,1.13-.72,1.94l4.75-.04c.01-.14,.02-.25,.02-.32,0-.4-.07-.77-.22-1.12s-.38-.63-.71-.85c-.33-.22-.74-.33-1.24-.33-.83,0-1.46,.24-1.88,.72Z"/><path class="cls-15" d="M143.28,178.76c.26,0,.54,.03,.83,.08l-.25,1.37c-.16-.02-.33-.03-.48-.03-.91,0-1.66,.28-2.26,.84v6.51h-1.44v-8.56h1.09l.19,.83c.6-.7,1.38-1.05,2.32-1.05Z"/></g><line class="cls-6" x1="519.45" y1="185.05" x2="782.5" y2="185.05"/><line class="cls-6" x1="519.45" y1="280.61" x2="782.5" y2="280.61"/><line class="cls-6" x1="519.45" y1="376.16" x2="782.5" y2="376.16"/><polyline class="cls-8" points="505.12 113.99 650.97 51.1 796.53 113.9"/><line class="cls-4" x1="650.83" y1="326.65" x2="823.91" y2="326.65"/><line class="cls-4" x1="650.83" y1="232.83" x2="823.91" y2="232.83"/><line class="cls-4" x1="650.83" y1="139" x2="823.91" y2="139"/><rect class="cls-2" x="611.78" y="401.4" width="81.62" height="49.46"/><rect class="cls-2" x="292.64" y="326.65" width="81.62" height="49.46"/><g><path class="cls-15" d="M654.7,430.17h-5.6l-.85,2.57h-2.66l4.93-13.3h2.9l4.86,13.3h-2.71l-.86-2.57Zm-.65-1.93l-1.93-5.73c-.02-.1-.06-.24-.1-.41-.04-.18-.08-.34-.11-.48h-.04c-.01,.09-.05,.25-.1,.47s-.1,.36-.12,.42l-1.9,5.73h4.3Z"/><path class="cls-15" d="M660.04,419.44h4.61c.95,0,1.76,.16,2.44,.49,.68,.32,1.21,.81,1.58,1.44s.55,1.41,.55,2.33-.21,1.64-.62,2.29-.99,1.15-1.73,1.5c-.74,.35-1.58,.52-2.52,.52h-1.86v4.73h-2.45v-13.3Zm4.2,6.59c.75,0,1.33-.19,1.76-.57,.42-.38,.64-.94,.64-1.68,0-1.56-.73-2.34-2.19-2.34h-1.97v4.59h1.76Z"/><path class="cls-15" d="M671.35,419.44h2.46v11.03h5.12v2.27h-7.58v-13.3Z"/></g><rect class="cls-2" x="611.78" y="114.27" width="81.62" height="49.46"/><g><path class="cls-15" d="M659.63,134.37h-3.83v-2.07h10.13v2.07h-3.84v11.23h-2.46v-11.23Z"/><path class="cls-15" d="M675.48,143.03h-5.6l-.85,2.57h-2.66l4.93-13.3h2.9l4.86,13.3h-2.71l-.86-2.57Zm-.65-1.93l-1.93-5.73c-.02-.1-.06-.24-.1-.41-.04-.18-.08-.34-.11-.48h-.04c-.01,.09-.05,.25-.1,.47s-.1,.36-.12,.42l-1.9,5.73h4.3Z"/></g><g><path class="cls-14" d="M635,146.51c.62,0,1.24,.23,1.74,.58l-1.74,1.74-1.74-1.74c.5-.35,1.12-.58,1.74-.58Zm0-5.16c1.88,0,3.6,.66,4.98,1.87l-.67,.77c-1.2-1.05-2.68-1.62-4.31-1.62s-3.11,.57-4.31,1.62l-.67-.77c1.38-1.21,3.1-1.87,4.98-1.87Zm0-5.81c3.33,0,6.5,1.32,9.05,3.62l-.68,.76c-2.38-2.14-5.3-3.35-8.37-3.35s-6.09,1.18-8.36,3.35l-.7-.74c2.46-2.34,5.63-3.62,9.06-3.62Zm0-6.39c4.95,0,9.56,1.92,13.13,5.37l-.71,.73c-3.39-3.27-7.74-5.09-12.43-5.09s-9.18,1.84-12.42,5.08l-.72-.72c3.43-3.43,8.15-5.38,13.14-5.38Z"/><g class="cls-9"><polygon class="cls-14" points="621.86 129.16 648.13 129.16 648.13 148.84 621.86 148.84 621.86 129.16"/></g></g><rect class="cls-2" x="611.78" y="208.1" width="81.62" height="49.46"/><g><path class="cls-15" d="M659.63,228.2h-3.83v-2.07h10.13v2.07h-3.84v11.23h-2.46v-11.23Z"/><path class="cls-15" d="M675.48,236.86h-5.6l-.85,2.57h-2.66l4.93-13.3h2.9l4.86,13.3h-2.71l-.86-2.57Zm-.65-1.93l-1.93-5.73c-.02-.1-.06-.24-.1-.41-.04-.18-.08-.34-.11-.48h-.04c-.01,.09-.05,.25-.1,.47s-.1,.36-.12,.42l-1.9,5.73h4.3Z"/></g><g><path class="cls-14" d="M635,240.34c.62,0,1.24,.23,1.74,.58l-1.74,1.74-1.74-1.74c.5-.35,1.12-.58,1.74-.58Zm0-5.16c1.88,0,3.6,.66,4.98,1.87l-.67,.77c-1.2-1.05-2.68-1.62-4.31-1.62s-3.11,.57-4.31,1.62l-.67-.77c1.38-1.21,3.1-1.87,4.98-1.87Zm0-5.81c3.33,0,6.5,1.32,9.05,3.62l-.68,.76c-2.38-2.14-5.3-3.35-8.37-3.35s-6.09,1.18-8.36,3.35l-.7-.74c2.46-2.34,5.63-3.62,9.06-3.62Zm0-6.39c4.95,0,9.56,1.92,13.13,5.37l-.71,.73c-3.39-3.27-7.74-5.09-12.43-5.09s-9.18,1.84-12.42,5.08l-.72-.72c3.43-3.43,8.15-5.38,13.14-5.38Z"/><g class="cls-17"><polygon class="cls-14" points="621.86 222.99 648.13 222.99 648.13 242.67 621.86 242.67 621.86 222.99"/></g></g><rect class="cls-2" x="611.78" y="301.92" width="81.62" height="49.46"/><g><path class="cls-15" d="M659.63,322.02h-3.83v-2.07h10.13v2.07h-3.84v11.23h-2.46v-11.23Z"/><path class="cls-15" d="M675.48,330.69h-5.6l-.85,2.57h-2.66l4.93-13.3h2.9l4.86,13.3h-2.71l-.86-2.57Zm-.65-1.93l-1.93-5.73c-.02-.1-.06-.24-.1-.41-.04-.18-.08-.34-.11-.48h-.04c-.01,.09-.05,.25-.1,.47s-.1,.36-.12,.42l-1.9,5.73h4.3Z"/></g><g><path class="cls-14" d="M635,334.17c.62,0,1.24,.23,1.74,.58l-1.74,1.74-1.74-1.74c.5-.35,1.12-.58,1.74-.58Zm0-5.16c1.88,0,3.6,.66,4.98,1.87l-.67,.77c-1.2-1.05-2.68-1.62-4.31-1.62s-3.11,.57-4.31,1.62l-.67-.77c1.38-1.21,3.1-1.87,4.98-1.87Zm0-5.81c3.33,0,6.5,1.32,9.05,3.62l-.68,.76c-2.38-2.14-5.3-3.35-8.37-3.35s-6.09,1.18-8.36,3.35l-.7-.74c2.46-2.34,5.63-3.62,9.06-3.62Zm0-6.39c4.95,0,9.56,1.92,13.13,5.37l-.71,.73c-3.39-3.27-7.74-5.09-12.43-5.09s-9.18,1.84-12.42,5.08l-.72-.72c3.43-3.43,8.15-5.38,13.14-5.38Z"/><g class="cls-18"><polygon class="cls-14" points="621.86 316.82 648.13 316.82 648.13 336.49 621.86 336.49 621.86 316.82"/></g></g><path class="cls-10" d="M431.61,266.37l-2.14,2.9c-2.72,3.73-5.71,7.84-7.69,12.46-.2-.07-.4-.14-.6-.21-1.23-4.04-3.07-7.78-4.85-11.4-.55-1.11-1.1-2.25-1.64-3.39-2-.41-3.88-1.25-5.56-2.44-.34,1.12-.77,2.18-1.26,3.2,.71,1.56,1.46,3.08,2.19,4.58,1.41,2.87,2.76,5.64,3.82,8.5,.07,.35,.16,.7,.24,1.03,.53,2.01,.96,4.05,1.23,6.1v86.02h11.93v-87.92h-.01c1.59-5.01,4.85-9.49,8.01-13.83l1.81-2.46c-.03-.13-.06-.25-.08-.37-1.97-1.38-3.78-1.91-5.41-2.75Z"/><path class="cls-11" d="M470.88,247.01c3.01-2.62,4.68-5.83,4.24-8.91-.49-3.43-3.48-5.89-7.69-6.89,.29-1.59,.45-3.24,.45-4.94,0-12.59-8.39-22.8-18.72-22.8-1.41,0-2.78,.2-4.1,.56-3.04-4.88-7.85-8.03-13.27-8.03-.23,0-.46,0-.69,.02-2.09-5.7-6.29-10-11.4-11.45v-.03c-1.19-.33-2.43-.51-3.71-.51-6.68,0-12.44,4.79-15.08,11.69-.56-.07-1.12-.1-1.7-.1-7.94,0-14.57,6.76-16.23,15.79-8.46,.95-15.08,9.58-15.08,20.09,0,.15,0,.3,0,.45-5.18,5.2-7.51,12.98-5.3,19.52,1,2.97,2.8,5.28,5.08,6.83-.64,3.78-.22,7.47,1.46,10.4,2.81,4.91,8.34,6.37,14,4.37,2.84,2.76,6.44,4.41,10.36,4.41,6.12,0,11.47-4.02,14.35-10.01,.49-1.01,.92-2.08,1.26-3.2,1.69,1.19,3.57,2.03,5.56,2.44,.91,.19,1.84,.3,2.8,.3,.75,0,1.49-.07,2.21-.18h0c3.48-.55,6.62,.08,9.06-2.69,.88,1.05,1.83,1.7,2.85,2.22,1.63,.84,3.45,1.37,5.41,2.75,.02,.13,.06,.25,.08,.37,1.67,8.11,6.51,13.98,12.23,13.98,3.74,0,7.1-2.5,9.45-6.5,8.96,.37,16.11-3.24,18.17-10.19,1.79-6.08-.72-13.37-6.06-19.76Z"/><path class="cls-10" d="M232.48,303.85l-1.39,1.89c-1.77,2.43-3.72,5.1-5.01,8.11-.13-.05-.26-.09-.39-.14-.8-2.63-2-5.06-3.16-7.42-.36-.72-.72-1.46-1.07-2.21-1.3-.27-2.52-.81-3.62-1.59-.22,.73-.5,1.42-.82,2.08,.46,1.01,.95,2.01,1.42,2.98,.92,1.87,1.8,3.67,2.49,5.53,.04,.23,.1,.46,.16,.67,.34,1.31,.62,2.63,.8,3.97v55.98h7.77v-57.22h0c1.04-3.26,3.16-6.18,5.22-9l1.18-1.6c-.02-.08-.04-.16-.05-.24-1.28-.9-2.46-1.24-3.52-1.79Z"/><path class="cls-11" d="M258.04,291.25c1.96-1.7,3.05-3.8,2.76-5.8-.32-2.23-2.27-3.83-5-4.48,.19-1.04,.29-2.11,.29-3.21,0-8.2-5.46-14.84-12.19-14.84-.92,0-1.81,.13-2.67,.36-1.98-3.17-5.11-5.23-8.64-5.23-.15,0-.3,0-.45,.01-1.36-3.71-4.09-6.51-7.42-7.45v-.02c-.78-.21-1.58-.33-2.41-.33-4.35,0-8.1,3.12-9.82,7.61-.36-.04-.73-.07-1.1-.07-5.17,0-9.48,4.4-10.56,10.28-5.5,.62-9.82,6.24-9.82,13.08,0,.1,0,.19,0,.29-3.37,3.38-4.88,8.44-3.45,12.7,.65,1.93,1.82,3.43,3.31,4.45-.42,2.46-.14,4.86,.95,6.77,1.83,3.19,5.43,4.14,9.11,2.84,1.85,1.79,4.19,2.87,6.75,2.87,3.99,0,7.46-2.62,9.34-6.51,.32-.66,.6-1.35,.82-2.08,1.1,.78,2.32,1.32,3.62,1.59,.59,.12,1.2,.19,1.82,.19,.49,0,.97-.04,1.44-.12h0c2.26-.36,4.31,.05,5.9-1.75,.57,.69,1.19,1.11,1.86,1.45,1.06,.55,2.24,.89,3.52,1.79,.02,.08,.04,.16,.05,.24,1.09,5.28,4.23,9.1,7.96,9.1,2.43,0,4.62-1.63,6.15-4.23,5.83,.24,10.49-2.11,11.82-6.63,1.17-3.96-.47-8.7-3.95-12.86Z"/><rect class="cls-13" x="38.3" y="169.47" width="24.11" height="24.11"/><g><path class="cls-15" d="M331.11,351.58l-1.81,2.19v4.16h-2.46v-13.3h2.46v5.91c.22-.4,.49-.79,.83-1.2l4.2-5.18,2.7,.23-4.24,5.15,4.4,8.39h-2.91l-3.16-6.35Z"/><path class="cls-15" d="M337.25,344.63h2.67l3.1,9.77c.15,.45,.24,.84,.28,1.18h.04c.02-.17,.07-.37,.12-.58,.06-.21,.12-.42,.19-.63l3.19-9.75h2.58s-4.71,13.31-4.71,13.31h-2.81l-4.65-13.3Z"/><path class="cls-15" d="M349.95,357.49l6.4-10.65h-6.09v-2.22h10.01v.37l-6.35,10.66h6.41v2.27h-10.38v-.44Z"/></g><g><polyline class="cls-7" points="621.71 429.04 621.71 435.96 632.5 435.96"/><line class="cls-7" x1="621.71" y1="416.04" x2="621.71" y2="423.33"/><line class="cls-7" x1="632.8" y1="426.25" x2="624.31" y2="426.25"/><line class="cls-7" x1="632.8" y1="416.54" x2="621.71" y2="416.54"/><rect class="cls-7" x="632.54" y="413.53" width="5.58" height="5.58"/><rect class="cls-7" x="618.92" y="423.46" width="5.58" height="5.58"/><rect class="cls-7" x="632.54" y="423.46" width="5.58" height="5.58"/><rect class="cls-7" x="632.54" y="433.17" width="5.58" height="5.58"/></g><g><polyline class="cls-7" points="302.05 354.29 302.05 361.21 312.84 361.21"/><line class="cls-7" x1="302.05" y1="341.29" x2="302.05" y2="348.58"/><line class="cls-7" x1="313.14" y1="351.5" x2="304.64" y2="351.5"/><line class="cls-7" x1="313.14" y1="341.79" x2="302.05" y2="341.79"/><rect class="cls-7" x="312.88" y="338.78" width="5.58" height="5.58"/><rect class="cls-7" x="299.26" y="348.71" width="5.58" height="5.58"/><rect class="cls-7" x="312.88" y="348.71" width="5.58" height="5.58"/><rect class="cls-7" x="312.88" y="358.42" width="5.58" height="5.58"/></g><g><polyline class="cls-7" points="85.78 354.29 85.78 361.21 96.56 361.21"/><line class="cls-7" x1="85.78" y1="341.29" x2="85.78" y2="348.58"/><line class="cls-7" x1="96.86" y1="351.5" x2="88.37" y2="351.5"/><line class="cls-7" x1="96.86" y1="341.79" x2="85.78" y2="341.79"/><rect class="cls-7" x="96.61" y="338.78" width="5.58" height="5.58"/><rect class="cls-7" x="82.99" y="348.71" width="5.58" height="5.58"/><rect class="cls-7" x="96.61" y="348.71" width="5.58" height="5.58"/><rect class="cls-7" x="96.61" y="358.42" width="5.58" height="5.58"/></g><g><path class="cls-15" d="M40.09,506.8h2.25l2.61,8.23c.12,.38,.2,.71,.23,.99h.03c.02-.15,.06-.31,.11-.49,.05-.18,.1-.36,.16-.53l2.69-8.21h2.17s-3.97,11.21-3.97,11.21h-2.37l-3.91-11.2Z"/><path class="cls-15" d="M52.9,517.93c-.54-.14-1.15-.37-1.84-.7l.72-1.84c.61,.31,1.12,.52,1.54,.63,.42,.11,.85,.17,1.29,.17,.69,0,1.19-.13,1.51-.39,.32-.26,.48-.6,.48-1.04,0-.26-.09-.48-.26-.67-.17-.19-.39-.34-.66-.47-.26-.12-.63-.28-1.11-.46-.67-.25-1.21-.49-1.63-.71s-.78-.55-1.08-.96c-.3-.41-.45-.94-.45-1.57,0-.74,.18-1.36,.55-1.85,.37-.5,.85-.86,1.45-1.09,.6-.23,1.26-.35,1.98-.35,.53,0,1.02,.05,1.48,.15,.46,.1,.92,.24,1.38,.43l-.66,1.8-.2-.07c-.32-.12-.62-.22-.91-.29-.28-.07-.62-.1-1.02-.1-.51,0-.95,.1-1.3,.3s-.54,.52-.54,.95c0,.22,.08,.42,.23,.59,.15,.17,.35,.31,.59,.43,.24,.12,.57,.26,1,.43,.66,.27,1.21,.52,1.63,.76,.43,.24,.79,.58,1.1,1.03,.31,.45,.46,1.01,.46,1.69s-.16,1.3-.47,1.82c-.31,.51-.77,.91-1.37,1.18-.6,.28-1.32,.41-2.16,.41-.6,0-1.17-.07-1.7-.21Z"/><path class="cls-15" d="M63.18,515.97c.19,.26,.5,.39,.94,.39,.21,0,.45-.02,.71-.05v1.83c-.33,.03-.68,.05-1.03,.05-.98,0-1.71-.21-2.19-.61-.47-.41-.71-.98-.71-1.71v-3.88h-1.33v-1.59h1.33v-2.73h2v2.73c.45,0,.86,0,1.22,0h.71v1.59h-.71c-.36,0-.76,0-1.21,0v3.03c0,.38,.09,.69,.28,.96Z"/><path class="cls-15" d="M66.55,512.42c-.2-.12-.35-.27-.46-.46-.11-.2-.17-.41-.17-.65,0-.25,.06-.47,.17-.67,.12-.2,.27-.35,.47-.46,.2-.11,.42-.17,.67-.17s.47,.05,.67,.17c.2,.11,.35,.27,.46,.46,.11,.2,.17,.42,.17,.66s-.05,.46-.17,.66c-.11,.2-.27,.35-.47,.46s-.43,.16-.69,.16c-.24,0-.46-.06-.66-.17Zm0,5.59c-.2-.12-.35-.27-.46-.47-.11-.2-.17-.42-.17-.66,0-.25,.06-.47,.17-.67,.12-.2,.27-.35,.47-.46,.2-.11,.42-.17,.67-.17s.47,.05,.67,.17c.2,.11,.35,.27,.46,.46,.11,.2,.17,.42,.17,.66s-.05,.47-.17,.67c-.11,.2-.27,.35-.47,.46-.2,.11-.43,.17-.69,.17-.24,0-.46-.06-.66-.17Z"/><path class="cls-15" d="M73.76,506.8h1.44l3.12,8.92c.11,.29,.19,.62,.23,.99h.03c.04-.28,.13-.62,.27-1.02l3.19-8.91h1.38s-4.15,11.21-4.15,11.21h-1.45l-4.06-11.2Z"/><path class="cls-15" d="M89.58,516.88c.39-.08,.78-.19,1.17-.34l.4,1.09c-.37,.16-.84,.29-1.41,.39-.57,.1-1.08,.16-1.55,.16-1.23,0-2.18-.33-2.86-.99-.68-.66-1.02-1.67-1.02-3.04,0-.86,.15-1.58,.45-2.18,.3-.6,.73-1.05,1.3-1.36,.57-.31,1.25-.46,2.05-.46,.7,0,1.29,.16,1.77,.49,.47,.32,.83,.75,1.05,1.27,.23,.52,.34,1.08,.34,1.68,0,.41-.06,.82-.17,1.23l-5.44,.04c.12,.7,.41,1.23,.88,1.59,.47,.36,1.11,.54,1.92,.54,.35,0,.72-.04,1.11-.12Zm-3.3-4.86c-.38,.43-.59,1-.64,1.73l4.23-.04c.01-.12,.02-.22,.02-.28,0-.36-.06-.69-.2-1-.13-.31-.34-.56-.63-.76s-.66-.29-1.11-.29c-.74,0-1.3,.21-1.67,.64Z"/><path class="cls-15" d="M96.44,510.2c.23,0,.48,.02,.73,.07l-.22,1.22c-.14-.02-.29-.02-.43-.02-.81,0-1.48,.25-2.01,.75v5.79h-1.28v-7.61h.97l.17,.73c.54-.62,1.22-.93,2.06-.93Z"/><path class="cls-15" d="M108.89,510.58c.42,.26,.73,.62,.94,1.08,.21,.46,.32,.98,.32,1.58v4.77h-1.28v-4.41c0-.65-.14-1.17-.41-1.57-.26-.4-.69-.61-1.28-.61-.42,0-.82,.07-1.19,.22-.37,.15-.7,.35-.97,.61,.07,.32,.11,.64,.11,.98v4.77h-1.28v-4.41c0-.65-.14-1.17-.41-1.57-.26-.4-.69-.61-1.28-.61-.39,0-.77,.07-1.12,.22-.35,.15-.67,.36-.95,.62l-.02,5.74h-1.28l.02-7.61h.95l.24,.75c.59-.64,1.37-.95,2.33-.95,.53,0,.99,.1,1.38,.3,.39,.2,.7,.48,.93,.84,.76-.76,1.67-1.14,2.72-1.14,.61,0,1.12,.13,1.54,.39Z"/><path class="cls-15" d="M112.62,507.76c-.17-.17-.25-.38-.25-.62s.08-.45,.25-.62,.38-.25,.62-.25,.45,.08,.62,.25c.17,.17,.25,.37,.25,.62s-.08,.46-.25,.62-.37,.25-.62,.25-.46-.08-.62-.25Zm-.04,2.63h1.28v7.61h-1.28v-7.61Z"/><path class="cls-15" d="M118.07,511.53v4.11c0,.23,.05,.45,.15,.67,.1,.21,.26,.39,.46,.53,.21,.14,.46,.21,.76,.21,.21,0,.45-.02,.71-.05v1.15c-.34,.03-.68,.05-1.03,.05-.48,0-.89-.11-1.23-.31-.34-.21-.59-.49-.77-.84s-.26-.74-.26-1.17v-4.34h-1.38v-1.13h1.38v-2.73h1.2v2.73h2.09v1.13h-2.09Z"/><path class="cls-15" d="M123.49,511.53v4.11c0,.23,.05,.45,.15,.67,.1,.21,.26,.39,.46,.53,.21,.14,.46,.21,.76,.21,.21,0,.45-.02,.71-.05v1.15c-.34,.03-.68,.05-1.03,.05-.48,0-.89-.11-1.23-.31-.34-.21-.59-.49-.77-.84s-.26-.74-.26-1.17v-4.34h-1.38v-1.13h1.38v-2.73h1.2v2.73h2.09v1.13h-2.09Z"/><path class="cls-15" d="M127.3,506.16h1.28v11.84h-1.28v-11.84Z"/><path class="cls-15" d="M137.19,518.3c-.3-.54-.52-1.05-.64-1.53-.08,.21-.23,.43-.45,.64-.22,.21-.51,.39-.86,.54-.35,.14-.75,.22-1.2,.22-.73,0-1.33-.14-1.78-.43-.45-.29-.78-.66-.97-1.11-.19-.46-.29-.96-.29-1.5v-4.73h1.28v4.33c0,.68,.14,1.23,.43,1.64,.29,.41,.82,.62,1.61,.62,.59,0,1.08-.14,1.46-.42,.39-.28,.58-.74,.58-1.39v-4.78h1.28v5.03c0,.77,.23,1.55,.68,2.36l-1.13,.52Z"/><path class="cls-15" d="M145.51,510.58c.45,.26,.79,.62,1.02,1.08,.23,.46,.34,.98,.34,1.58v4.77h-1.28v-4.41c0-.64-.14-1.16-.41-1.57s-.72-.61-1.36-.62c-.45,0-.87,.09-1.26,.25-.39,.16-.74,.38-1.04,.67l-.02,5.68h-1.28l.02-7.61h.95l.24,.76c.61-.64,1.41-.96,2.41-.96,.67,0,1.23,.13,1.68,.39Z"/><path class="cls-15" d="M156.11,510.39v7.61c0,1.28-.45,2.23-1.36,2.84-.91,.61-2.19,.92-3.83,.93l-.15-1.2c1-.05,1.79-.18,2.38-.41,.59-.23,1.02-.55,1.29-.97,.27-.42,.4-.96,.4-1.61v-.53c-.5,.76-1.38,1.14-2.65,1.14-.68,0-1.28-.16-1.8-.48s-.91-.77-1.2-1.36c-.28-.58-.43-1.26-.43-2.03,0-.82,.16-1.54,.48-2.16,.32-.62,.77-1.11,1.35-1.45,.58-.34,1.25-.52,2.02-.52,.83,0,1.62,.31,2.38,.94l.17-.73h.96Zm-1.27,4.08v-2.34c-.32-.28-.67-.48-1.05-.6-.38-.12-.74-.18-1.08-.18-.53,0-.98,.12-1.37,.35-.38,.23-.68,.56-.89,.99-.21,.43-.31,.94-.31,1.54,0,.45,.08,.88,.25,1.3,.17,.42,.43,.76,.78,1.03,.36,.27,.8,.4,1.33,.4,.76,0,1.34-.22,1.74-.65,.4-.44,.6-1.05,.6-1.84h0Z"/><path class="cls-15" d="M158.08,517.59l.42-1.15c.84,.38,1.55,.57,2.15,.58,1.08-.02,1.63-.37,1.63-1.07,0-.25-.07-.45-.21-.6-.14-.16-.31-.28-.52-.38-.21-.09-.49-.2-.85-.31-.47-.15-.86-.3-1.16-.45s-.55-.37-.76-.67-.32-.69-.32-1.18c.02-1.46,.9-2.19,2.66-2.19,.81,0,1.51,.14,2.11,.41l-.45,1.16c-.6-.27-1.15-.4-1.66-.4-.93,0-1.42,.35-1.45,1.01,0,.2,.06,.36,.19,.49,.12,.13,.28,.23,.46,.32,.19,.08,.45,.18,.78,.29,.5,.16,.9,.31,1.21,.47,.32,.16,.59,.4,.82,.73,.23,.32,.34,.76,.34,1.29,0,1.5-.95,2.25-2.84,2.25-.82,0-1.68-.21-2.57-.61Z"/><path class="cls-15" d="M164.87,517.59l.42-1.15c.84,.38,1.55,.57,2.15,.58,1.08-.02,1.63-.37,1.63-1.07,0-.25-.07-.45-.21-.6-.14-.16-.31-.28-.52-.38-.21-.09-.49-.2-.85-.31-.47-.15-.86-.3-1.16-.45s-.55-.37-.76-.67-.32-.69-.32-1.18c.02-1.46,.9-2.19,2.66-2.19,.81,0,1.51,.14,2.11,.41l-.45,1.16c-.6-.27-1.15-.4-1.66-.4-.93,0-1.42,.35-1.45,1.01,0,.2,.06,.36,.19,.49,.12,.13,.28,.23,.46,.32,.19,.08,.45,.18,.78,.29,.5,.16,.9,.31,1.21,.47,.32,.16,.59,.4,.82,.73,.23,.32,.34,.76,.34,1.29,0,1.5-.95,2.25-2.84,2.25-.82,0-1.68-.21-2.57-.61Z"/><path class="cls-15" d="M173.9,511.53v4.11c0,.23,.05,.45,.15,.67,.1,.21,.26,.39,.46,.53,.21,.14,.46,.21,.76,.21,.21,0,.45-.02,.71-.05v1.15c-.34,.03-.68,.05-1.03,.05-.48,0-.89-.11-1.23-.31-.34-.21-.59-.49-.77-.84s-.26-.74-.26-1.17v-4.34h-1.38v-1.13h1.38v-2.73h1.2v2.73h2.09v1.13h-2.09Z"/><path class="cls-15" d="M182.41,516.88c.39-.08,.78-.19,1.17-.34l.4,1.09c-.37,.16-.84,.29-1.41,.39-.57,.1-1.08,.16-1.55,.16-1.23,0-2.18-.33-2.86-.99-.68-.66-1.02-1.67-1.02-3.04,0-.86,.15-1.58,.45-2.18,.3-.6,.73-1.05,1.3-1.36,.57-.31,1.25-.46,2.05-.46,.7,0,1.29,.16,1.77,.49,.47,.32,.83,.75,1.05,1.27,.23,.52,.34,1.08,.34,1.68,0,.41-.06,.82-.17,1.23l-5.44,.04c.12,.7,.41,1.23,.88,1.59,.47,.36,1.11,.54,1.92,.54,.35,0,.72-.04,1.11-.12Zm-3.3-4.86c-.38,.43-.59,1-.64,1.73l4.23-.04c.01-.12,.02-.22,.02-.28,0-.36-.06-.69-.2-1-.13-.31-.34-.56-.63-.76s-.66-.29-1.11-.29c-.74,0-1.3,.21-1.67,.64Z"/><path class="cls-15" d="M186.07,506.16h1.28v11.84h-1.28v-11.84Z"/><path class="cls-15" d="M189.94,506.16h1.28v11.84h-1.28v-11.84Z"/><path class="cls-15" d="M198.53,516.88c.39-.08,.78-.19,1.17-.34l.4,1.09c-.37,.16-.84,.29-1.41,.39-.57,.1-1.08,.16-1.55,.16-1.23,0-2.18-.33-2.86-.99-.68-.66-1.02-1.67-1.02-3.04,0-.86,.15-1.58,.45-2.18,.3-.6,.73-1.05,1.3-1.36,.57-.31,1.25-.46,2.05-.46,.7,0,1.29,.16,1.77,.49,.47,.32,.83,.75,1.05,1.27,.23,.52,.34,1.08,.34,1.68,0,.41-.06,.82-.17,1.23l-5.44,.04c.12,.7,.41,1.23,.88,1.59,.47,.36,1.11,.54,1.92,.54,.35,0,.72-.04,1.11-.12Zm-3.3-4.86c-.38,.43-.59,1-.64,1.73l4.23-.04c.01-.12,.02-.22,.02-.28,0-.36-.06-.69-.2-1-.13-.31-.34-.56-.63-.76s-.66-.29-1.11-.29c-.74,0-1.3,.21-1.67,.64Z"/></g><g><path class="cls-15" d="M234.83,512.66l-1.52,1.84v3.5h-2.07v-11.2h2.07v4.98c.18-.33,.41-.67,.7-1.01l3.54-4.36,2.27,.2-3.57,4.34,3.7,7.06h-2.45l-2.66-5.34Z"/><path class="cls-15" d="M240,506.8h2.25l2.61,8.23c.12,.38,.2,.71,.23,.99h.03c.02-.15,.06-.31,.11-.49s.1-.36,.16-.53l2.69-8.21h2.17s-3.97,11.21-3.97,11.21h-2.37l-3.91-11.2Z"/><path class="cls-15" d="M250.69,517.63l5.39-8.97h-5.12v-1.87h8.43v.31l-5.35,8.98h5.4v1.91h-8.74v-.37Z"/><path class="cls-15" d="M261.2,512.42c-.2-.12-.35-.27-.46-.46s-.17-.41-.17-.65c0-.25,.06-.47,.17-.67s.27-.35,.47-.46c.2-.11,.42-.17,.67-.17s.47,.05,.67,.17c.2,.11,.35,.27,.46,.46,.11,.2,.17,.42,.17,.66s-.06,.46-.17,.66c-.11,.2-.27,.35-.47,.46s-.43,.16-.69,.16c-.24,0-.46-.06-.66-.17Zm0,5.59c-.2-.12-.35-.27-.46-.47-.11-.2-.17-.42-.17-.66,0-.25,.06-.47,.17-.67s.27-.35,.47-.46c.2-.11,.42-.17,.67-.17s.47,.05,.67,.17c.2,.11,.35,.27,.46,.46,.11,.2,.17,.42,.17,.66s-.06,.47-.17,.67-.27,.35-.47,.46c-.2,.11-.43,.17-.69,.17-.24,0-.46-.06-.66-.17Z"/><path class="cls-15" d="M272.9,512.15l-1.82,2.22v3.63h-1.31v-11.2h1.31v5.57c.35-.44,.62-.77,.8-.98l4.1-4.98,1.45,.2-3.56,4.35,3.64,7.05h-1.57l-3.04-5.85Z"/><path class="cls-15" d="M284.16,518.3c-.29-.5-.5-1.02-.65-1.55-.09,.26-.26,.5-.52,.72s-.56,.39-.91,.52-.71,.19-1.08,.19c-.52,0-.98-.08-1.39-.24-.41-.16-.73-.41-.97-.75-.24-.34-.36-.76-.36-1.27s.12-.92,.37-1.28c.25-.36,.59-.64,1.04-.83,.45-.19,.98-.29,1.57-.29,.72,0,1.4,.18,2.05,.55v-.8c0-.62-.15-1.08-.44-1.37-.29-.29-.72-.43-1.3-.43-.22,0-.53,.02-.94,.05-.41,.03-.79,.08-1.14,.14l-.22-1.28c.64-.07,1.13-.12,1.5-.16s.67-.05,.91-.05c.95,0,1.67,.25,2.16,.75s.74,1.24,.74,2.23l.02,2.25c0,.77,.23,1.55,.68,2.36l-1.13,.52Zm-1.8-1.53c.31-.14,.55-.34,.71-.6,.17-.26,.25-.56,.25-.9v-.07c-.26-.15-.55-.26-.87-.34-.32-.08-.65-.12-.99-.12-.56,0-1,.1-1.34,.29s-.5,.46-.5,.81c0,.22,.07,.42,.21,.59s.33,.3,.58,.4c.25,.1,.54,.14,.87,.14,.41,0,.76-.07,1.07-.21Z"/><path class="cls-15" d="M292.85,510.66c.51,.31,.9,.76,1.15,1.34,.25,.57,.38,1.25,.38,2.03,0,.85-.14,1.58-.42,2.21-.28,.62-.7,1.1-1.25,1.44-.55,.34-1.23,.51-2.03,.51-1.21,0-1.99-.44-2.34-1.3l-.37,1.12h-.93l-.02-11.84h1.29v5.16c.7-.76,1.59-1.13,2.65-1.13,.75,0,1.37,.16,1.89,.47Zm-.93,6.01c.34-.21,.6-.54,.8-.98s.29-1.01,.29-1.68c0-.5-.08-.93-.25-1.32s-.42-.68-.75-.9c-.33-.22-.73-.32-1.2-.32-.52,0-.95,.05-1.3,.16-.35,.11-.74,.31-1.19,.62v2.48c0,.57,.14,1.03,.41,1.36s.59,.57,.96,.7c.37,.13,.73,.19,1.09,.19,.43,0,.81-.11,1.14-.31Z"/><path class="cls-15" d="M301.14,516.88c.39-.08,.78-.19,1.17-.34l.4,1.09c-.37,.16-.84,.29-1.41,.39-.57,.1-1.08,.16-1.55,.16-1.23,0-2.18-.33-2.86-.99-.68-.66-1.02-1.67-1.02-3.04,0-.86,.15-1.58,.45-2.18,.3-.6,.73-1.05,1.3-1.36,.57-.31,1.25-.46,2.05-.46,.7,0,1.29,.16,1.77,.49,.47,.32,.83,.75,1.05,1.27s.34,1.08,.34,1.68c0,.41-.06,.82-.17,1.23l-5.44,.04c.11,.7,.41,1.23,.88,1.59,.47,.36,1.11,.54,1.92,.54,.35,0,.72-.04,1.11-.12Zm-3.3-4.86c-.38,.43-.59,1-.64,1.73l4.23-.04c.01-.12,.02-.22,.02-.28,0-.36-.07-.69-.2-1-.13-.31-.34-.56-.63-.76s-.66-.29-1.11-.29c-.74,0-1.3,.21-1.67,.64Z"/><path class="cls-15" d="M304.79,506.16h1.28v11.84h-1.28v-11.84Z"/><path class="cls-15" d="M307.5,510.39h1.37l2.03,5.23c.04,.1,.1,.3,.17,.58s.11,.46,.11,.55h.03c.01-.11,.04-.3,.1-.57,.06-.27,.1-.45,.13-.52l2.12-5.26h1.41l-3.19,7.65h-1.26l-3.03-7.65Z"/><path class="cls-15" d="M321.04,516.88c.39-.08,.78-.19,1.17-.34l.4,1.09c-.37,.16-.84,.29-1.41,.39-.57,.1-1.08,.16-1.55,.16-1.23,0-2.18-.33-2.86-.99-.68-.66-1.02-1.67-1.02-3.04,0-.86,.15-1.58,.45-2.18,.3-.6,.73-1.05,1.3-1.36,.57-.31,1.25-.46,2.05-.46,.7,0,1.29,.16,1.77,.49,.47,.32,.83,.75,1.05,1.27s.34,1.08,.34,1.68c0,.41-.06,.82-.17,1.23l-5.44,.04c.11,.7,.41,1.23,.88,1.59,.47,.36,1.11,.54,1.92,.54,.35,0,.72-.04,1.11-.12Zm-3.3-4.86c-.38,.43-.59,1-.64,1.73l4.23-.04c.01-.12,.02-.22,.02-.28,0-.36-.07-.69-.2-1-.13-.31-.34-.56-.63-.76s-.66-.29-1.11-.29c-.74,0-1.3,.21-1.67,.64Z"/><path class="cls-15" d="M327.91,510.2c.23,0,.48,.02,.73,.07l-.22,1.22c-.15-.02-.29-.02-.43-.02-.81,0-1.48,.25-2.01,.75v5.79h-1.28v-7.61h.97l.17,.73c.54-.62,1.22-.93,2.06-.93Z"/><path class="cls-15" d="M329.38,517.6l4.36-6.06h-4.15v-1.15h6.17v.37l-4.44,6.09h4.47v1.15h-6.41v-.4Z"/><path class="cls-15" d="M336.39,510.39h1.3l1.66,5.44c.02,.08,.04,.2,.06,.36s.03,.27,.04,.34h.06c0-.06,.02-.19,.06-.37,.03-.19,.06-.31,.08-.37l1.81-5.41h1.17l1.69,5.44s.04,.16,.07,.34,.05,.3,.05,.38h.06c0-.05,.02-.16,.05-.32,.03-.16,.06-.29,.09-.39l1.62-5.45h1.31l-2.4,7.65h-1.33l-1.66-5.14c-.03-.11-.06-.25-.1-.41s-.05-.27-.06-.32h-.03s-.03,.15-.07,.32-.07,.3-.11,.4l-1.75,5.15h-1.28l-2.42-7.65Z"/><path class="cls-15" d="M353.77,516.88c.39-.08,.78-.19,1.17-.34l.4,1.09c-.37,.16-.84,.29-1.41,.39-.57,.1-1.08,.16-1.55,.16-1.23,0-2.18-.33-2.86-.99-.68-.66-1.02-1.67-1.02-3.04,0-.86,.15-1.58,.45-2.18,.3-.6,.73-1.05,1.3-1.36,.57-.31,1.25-.46,2.05-.46,.7,0,1.29,.16,1.77,.49,.47,.32,.83,.75,1.05,1.27s.34,1.08,.34,1.68c0,.41-.06,.82-.17,1.23l-5.44,.04c.11,.7,.41,1.23,.88,1.59,.47,.36,1.11,.54,1.92,.54,.35,0,.72-.04,1.11-.12Zm-3.3-4.86c-.38,.43-.59,1-.64,1.73l4.23-.04c.01-.12,.02-.22,.02-.28,0-.36-.07-.69-.2-1-.13-.31-.34-.56-.63-.76s-.66-.29-1.11-.29c-.74,0-1.3,.21-1.67,.64Z"/><path class="cls-15" d="M357.47,507.76c-.17-.17-.25-.38-.25-.62s.08-.45,.25-.62c.17-.17,.38-.25,.62-.25s.45,.08,.62,.25c.17,.17,.25,.37,.25,.62s-.08,.46-.25,.62c-.17,.17-.37,.25-.62,.25s-.46-.08-.62-.25Zm-.04,2.63h1.28v7.61h-1.28v-7.61Z"/><path class="cls-15" d="M368.13,510.39v7.61c0,1.28-.45,2.23-1.36,2.84s-2.19,.92-3.83,.93l-.15-1.2c1-.05,1.79-.18,2.38-.41s1.02-.55,1.29-.97c.27-.42,.4-.96,.4-1.61v-.53c-.5,.76-1.38,1.14-2.65,1.14-.68,0-1.28-.16-1.8-.48s-.92-.77-1.2-1.36c-.28-.58-.43-1.26-.43-2.03,0-.82,.16-1.54,.48-2.16,.32-.62,.77-1.11,1.35-1.45s1.25-.52,2.02-.52c.83,0,1.62,.31,2.38,.94l.17-.73h.96Zm-1.27,4.08v-2.34c-.32-.28-.67-.48-1.05-.6s-.74-.18-1.08-.18c-.53,0-.98,.12-1.37,.35-.39,.23-.68,.56-.89,.99s-.31,.94-.31,1.54c0,.45,.08,.88,.25,1.3,.17,.42,.43,.76,.78,1.03,.35,.27,.8,.4,1.33,.4,.76,0,1.34-.22,1.74-.65,.4-.44,.6-1.05,.6-1.84h0Z"/><path class="cls-15" d="M375.44,516.88c.39-.08,.78-.19,1.17-.34l.4,1.09c-.37,.16-.84,.29-1.41,.39-.57,.1-1.08,.16-1.55,.16-1.23,0-2.18-.33-2.86-.99-.68-.66-1.02-1.67-1.02-3.04,0-.86,.15-1.58,.45-2.18,.3-.6,.73-1.05,1.3-1.36,.57-.31,1.25-.46,2.05-.46,.7,0,1.29,.16,1.77,.49,.47,.32,.83,.75,1.05,1.27s.34,1.08,.34,1.68c0,.41-.06,.82-.17,1.23l-5.44,.04c.11,.7,.41,1.23,.88,1.59,.47,.36,1.11,.54,1.92,.54,.35,0,.72-.04,1.11-.12Zm-3.3-4.86c-.38,.43-.59,1-.64,1.73l4.23-.04c.01-.12,.02-.22,.02-.28,0-.36-.07-.69-.2-1-.13-.31-.34-.56-.63-.76s-.66-.29-1.11-.29c-.74,0-1.3,.21-1.67,.64Z"/><path class="cls-15" d="M382.3,510.2c.23,0,.48,.02,.73,.07l-.22,1.22c-.15-.02-.29-.02-.43-.02-.81,0-1.48,.25-2.01,.75v5.79h-1.28v-7.61h.97l.17,.73c.54-.62,1.22-.93,2.06-.93Z"/></g><g><path class="cls-15" d="M623.87,515.84h-4.72l-.72,2.16h-2.24l4.15-11.2h2.45l4.09,11.2h-2.28l-.73-2.16Zm-.55-1.62l-1.62-4.83c-.02-.08-.05-.2-.09-.35s-.07-.28-.09-.4h-.03c-.01,.08-.04,.21-.09,.4s-.08,.3-.1,.35l-1.6,4.83h3.62Z"/><path class="cls-15" d="M628.37,506.8h3.88c.8,0,1.48,.14,2.06,.41s1.02,.68,1.33,1.21c.31,.54,.46,1.19,.46,1.96s-.17,1.38-.52,1.93-.83,.97-1.45,1.26c-.62,.29-1.33,.44-2.12,.44h-1.57v3.98h-2.06v-11.2Zm3.54,5.55c.63,0,1.12-.16,1.48-.48s.54-.79,.54-1.42c0-1.31-.61-1.97-1.84-1.97h-1.66v3.87h1.48Z"/><path class="cls-15" d="M637.9,506.8h2.07v9.29h4.31v1.91h-6.38v-11.2Z"/><path class="cls-15" d="M645.87,512.42c-.2-.12-.35-.27-.46-.46s-.17-.41-.17-.65c0-.25,.06-.47,.17-.67s.27-.35,.47-.46c.2-.11,.42-.17,.67-.17s.47,.05,.67,.17c.2,.11,.35,.27,.46,.46,.11,.2,.17,.42,.17,.66s-.06,.46-.17,.66c-.11,.2-.27,.35-.47,.46s-.43,.16-.69,.16c-.24,0-.46-.06-.66-.17Zm0,5.59c-.2-.12-.35-.27-.46-.47-.11-.2-.17-.42-.17-.66,0-.25,.06-.47,.17-.67s.27-.35,.47-.46c.2-.11,.42-.17,.67-.17s.47,.05,.67,.17c.2,.11,.35,.27,.46,.46,.11,.2,.17,.42,.17,.66s-.06,.47-.17,.67-.27,.35-.47,.46c-.2,.11-.43,.17-.69,.17-.24,0-.46-.06-.66-.17Z"/><path class="cls-15" d="M660.74,515.56h-5.27l-.88,2.44h-1.46l4.3-11.2h1.36l4.31,11.2h-1.45l-.91-2.44Zm-.44-1.18l-2.03-5.48c-.02-.08-.05-.2-.09-.35s-.07-.28-.09-.4h-.03c-.01,.08-.04,.21-.09,.4s-.08,.3-.1,.35l-1.98,5.48h4.41Z"/><path class="cls-15" d="M670.39,510.66c.51,.31,.9,.76,1.15,1.34,.25,.57,.38,1.25,.38,2.03,0,.85-.14,1.58-.42,2.21-.28,.62-.7,1.1-1.25,1.44-.55,.34-1.23,.51-2.03,.51-1.21,0-1.99-.44-2.34-1.3l-.37,1.12h-.93l-.02-11.84h1.29v5.16c.7-.76,1.59-1.13,2.65-1.13,.75,0,1.37,.16,1.89,.47Zm-.93,6.01c.34-.21,.6-.54,.8-.98s.29-1.01,.29-1.68c0-.5-.08-.93-.25-1.32s-.42-.68-.75-.9c-.33-.22-.73-.32-1.2-.32-.52,0-.95,.05-1.3,.16-.35,.11-.74,.31-1.19,.62v2.48c0,.57,.14,1.03,.41,1.36s.59,.57,.96,.7c.37,.13,.73,.19,1.09,.19,.43,0,.81-.11,1.14-.31Z"/><path class="cls-15" d="M673.34,517.59l.42-1.15c.84,.38,1.55,.57,2.15,.58,1.08-.02,1.63-.37,1.63-1.07,0-.25-.07-.45-.21-.6s-.31-.28-.52-.38-.49-.2-.85-.31c-.47-.15-.86-.3-1.16-.45s-.55-.37-.76-.67-.32-.69-.32-1.18c.02-1.46,.9-2.19,2.66-2.19,.81,0,1.51,.14,2.11,.41l-.45,1.16c-.6-.27-1.15-.4-1.66-.4-.93,0-1.42,.35-1.45,1.01,0,.2,.06,.36,.19,.49,.12,.13,.28,.23,.46,.32,.18,.08,.44,.18,.78,.29,.5,.16,.9,.31,1.21,.47,.32,.16,.59,.4,.82,.73,.23,.32,.34,.76,.34,1.29,0,1.5-.95,2.25-2.84,2.25-.82,0-1.68-.21-2.57-.61Z"/><path class="cls-15" d="M681.94,517.7c-.57-.32-1-.78-1.3-1.37-.3-.6-.45-1.3-.45-2.12s.15-1.52,.45-2.12c.3-.61,.75-1.07,1.33-1.4s1.28-.49,2.1-.48c.43,0,.85,.03,1.26,.11,.41,.08,.76,.19,1.05,.32l-.31,1.3c-.64-.29-1.3-.43-1.98-.43-.87,0-1.5,.22-1.89,.67s-.59,1.11-.59,2,.22,1.62,.67,2.07,1.09,.68,1.95,.68c.35,0,.66-.04,.93-.11s.63-.19,1.08-.36l.4,1.19c-.44,.17-.89,.3-1.35,.39s-.9,.14-1.32,.14c-.79,0-1.46-.16-2.03-.48Z"/><path class="cls-15" d="M693.43,510.58c.45,.26,.79,.62,1.02,1.08,.23,.46,.34,.98,.34,1.58v4.77h-1.28v-4.41c0-.64-.14-1.16-.41-1.57s-.73-.61-1.35-.61c-.45,0-.87,.08-1.27,.24-.4,.16-.75,.38-1.05,.66v5.69h-1.28v-11.85h1.28v4.92c.6-.59,1.38-.88,2.33-.88,.67,0,1.23,.13,1.68,.39Z"/><path class="cls-15" d="M697.2,506.16h1.28v11.84h-1.28v-11.84Z"/><path class="cls-15" d="M707.09,518.3c-.3-.54-.52-1.05-.64-1.53-.08,.21-.23,.43-.45,.64-.22,.21-.51,.39-.86,.54-.35,.14-.75,.22-1.2,.22-.73,0-1.33-.14-1.78-.43-.45-.29-.78-.66-.97-1.11-.19-.46-.29-.96-.29-1.5v-4.73h1.28v4.33c0,.68,.14,1.23,.43,1.64,.28,.41,.82,.62,1.61,.62,.59,0,1.08-.14,1.46-.42,.39-.28,.58-.74,.58-1.39v-4.78h1.28v5.03c0,.77,.23,1.55,.68,2.36l-1.13,.52Z"/><path class="cls-15" d="M709.51,517.59l.42-1.15c.84,.38,1.55,.57,2.15,.58,1.08-.02,1.63-.37,1.63-1.07,0-.25-.07-.45-.21-.6s-.31-.28-.52-.38-.49-.2-.85-.31c-.47-.15-.86-.3-1.16-.45s-.55-.37-.76-.67-.32-.69-.32-1.18c.02-1.46,.9-2.19,2.66-2.19,.81,0,1.51,.14,2.11,.41l-.45,1.16c-.6-.27-1.15-.4-1.66-.4-.93,0-1.42,.35-1.45,1.01,0,.2,.06,.36,.19,.49,.12,.13,.28,.23,.46,.32,.18,.08,.44,.18,.78,.29,.5,.16,.9,.31,1.21,.47,.32,.16,.59,.4,.82,.73,.23,.32,.34,.76,.34,1.29,0,1.5-.95,2.25-2.84,2.25-.82,0-1.68-.21-2.57-.61Z"/><path class="cls-15" d="M716.29,517.59l.42-1.15c.84,.38,1.55,.57,2.15,.58,1.08-.02,1.63-.37,1.63-1.07,0-.25-.07-.45-.21-.6s-.31-.28-.52-.38-.49-.2-.85-.31c-.47-.15-.86-.3-1.16-.45s-.55-.37-.76-.67-.32-.69-.32-1.18c.02-1.46,.9-2.19,2.66-2.19,.81,0,1.51,.14,2.11,.41l-.45,1.16c-.6-.27-1.15-.4-1.66-.4-.93,0-1.42,.35-1.45,1.01,0,.2,.06,.36,.19,.49,.12,.13,.28,.23,.46,.32,.18,.08,.44,.18,.78,.29,.5,.16,.9,.31,1.21,.47,.32,.16,.59,.4,.82,.73,.23,.32,.34,.76,.34,1.29,0,1.5-.95,2.25-2.84,2.25-.82,0-1.68-.21-2.57-.61Z"/><path class="cls-15" d="M729.5,510.64c.51,.3,.9,.74,1.17,1.31,.27,.57,.4,1.27,.4,2.07s-.14,1.58-.42,2.21c-.28,.62-.7,1.1-1.25,1.44-.55,.34-1.23,.51-2.03,.51-1.23,0-2.02-.45-2.37-1.36v4.85h-1.29v-11.28h.95l.3,.97c.35-.38,.75-.66,1.21-.87s.95-.3,1.46-.3c.72,0,1.33,.15,1.85,.45Zm-.89,6.04c.34-.21,.6-.54,.8-.98s.29-1.01,.29-1.68c0-.81-.19-1.43-.57-1.88-.38-.44-.93-.66-1.63-.66-.4,0-.82,.07-1.25,.21-.43,.14-.84,.33-1.25,.58v2.48c0,.57,.14,1.03,.41,1.36s.59,.57,.96,.7c.37,.13,.74,.19,1.09,.19,.43,0,.81-.11,1.14-.31Z"/><path class="cls-15" d="M739.13,518.3c-.3-.54-.52-1.05-.64-1.53-.08,.21-.23,.43-.45,.64-.22,.21-.51,.39-.86,.54-.35,.14-.75,.22-1.2,.22-.73,0-1.33-.14-1.78-.43-.45-.29-.78-.66-.97-1.11-.19-.46-.29-.96-.29-1.5v-4.73h1.28v4.33c0,.68,.14,1.23,.43,1.64,.28,.41,.82,.62,1.61,.62,.59,0,1.08-.14,1.46-.42,.39-.28,.58-.74,.58-1.39v-4.78h1.28v5.03c0,.77,.23,1.55,.68,2.36l-1.13,.52Z"/><path class="cls-15" d="M747.45,510.58c.45,.26,.79,.62,1.02,1.08,.23,.46,.34,.98,.34,1.58v4.77h-1.28v-4.41c0-.64-.14-1.16-.41-1.57s-.73-.61-1.36-.62c-.45,0-.87,.09-1.26,.25-.39,.16-.74,.38-1.04,.67l-.02,5.68h-1.28l.02-7.61h.95l.24,.76c.6-.64,1.41-.96,2.41-.96,.67,0,1.23,.13,1.68,.39Z"/><path class="cls-15" d="M753.94,514.14l-1.44,1.59v2.27h-1.28v-11.84h1.28v7.93c.21-.32,.39-.57,.55-.73l3-3.17,1.29,.2-2.55,2.81,2.88,4.81h-1.42l-2.31-3.88Z"/><path class="cls-15" d="M760.79,511.53v4.11c0,.23,.05,.45,.15,.67,.1,.21,.26,.39,.46,.53,.21,.14,.46,.21,.76,.21,.21,0,.45-.02,.71-.05v1.15c-.34,.03-.68,.05-1.03,.05-.48,0-.9-.11-1.23-.31-.34-.21-.59-.49-.77-.84s-.26-.74-.26-1.17v-4.34h-1.38v-1.13h1.38v-2.73h1.2v2.73h2.09v1.13h-2.09Z"/><path class="cls-15" d="M769.15,506.8h1.31v10.02h4.5v1.19h-5.81v-11.2Z"/><path class="cls-15" d="M776.55,507.76c-.17-.17-.25-.38-.25-.62s.08-.45,.25-.62c.17-.17,.38-.25,.62-.25s.45,.08,.62,.25c.17,.17,.25,.37,.25,.62s-.08,.46-.25,.62c-.17,.17-.37,.25-.62,.25s-.46-.08-.62-.25Zm-.04,2.63h1.28v7.61h-1.28v-7.61Z"/><path class="cls-15" d="M785.67,510.58c.45,.26,.79,.62,1.02,1.08,.23,.46,.34,.98,.34,1.58v4.77h-1.28v-4.41c0-.64-.14-1.16-.41-1.57s-.73-.61-1.36-.62c-.45,0-.87,.09-1.26,.25-.39,.16-.74,.38-1.04,.67l-.02,5.68h-1.28l.02-7.61h.95l.24,.76c.6-.64,1.41-.96,2.41-.96,.67,0,1.23,.13,1.68,.39Z"/><path class="cls-15" d="M789.48,507.76c-.17-.17-.25-.38-.25-.62s.08-.45,.25-.62c.17-.17,.38-.25,.62-.25s.45,.08,.62,.25c.17,.17,.25,.37,.25,.62s-.08,.46-.25,.62c-.17,.17-.37,.25-.62,.25s-.46-.08-.62-.25Zm-.04,2.63h1.28v7.61h-1.28v-7.61Z"/><path class="cls-15" d="M798.03,516.88c.39-.08,.78-.19,1.17-.34l.4,1.09c-.37,.16-.84,.29-1.41,.39-.57,.1-1.08,.16-1.55,.16-1.23,0-2.18-.33-2.86-.99-.68-.66-1.02-1.67-1.02-3.04,0-.86,.15-1.58,.45-2.18,.3-.6,.73-1.05,1.3-1.36,.57-.31,1.25-.46,2.05-.46,.7,0,1.29,.16,1.77,.49,.47,.32,.83,.75,1.05,1.27s.34,1.08,.34,1.68c0,.41-.06,.82-.17,1.23l-5.44,.04c.11,.7,.41,1.23,.88,1.59,.47,.36,1.11,.54,1.92,.54,.35,0,.72-.04,1.11-.12Zm-3.3-4.86c-.38,.43-.59,1-.64,1.73l4.23-.04c.01-.12,.02-.22,.02-.28,0-.36-.07-.69-.2-1-.13-.31-.34-.56-.63-.76s-.66-.29-1.11-.29c-.74,0-1.3,.21-1.67,.64Z"/><path class="cls-15" d="M806.97,510.58c.45,.26,.79,.62,1.02,1.08,.23,.46,.34,.98,.34,1.58v4.77h-1.28v-4.41c0-.64-.14-1.16-.41-1.57s-.73-.61-1.36-.62c-.45,0-.87,.09-1.26,.25-.39,.16-.74,.38-1.04,.67l-.02,5.68h-1.28l.02-7.61h.95l.24,.76c.6-.64,1.41-.96,2.41-.96,.67,0,1.23,.13,1.68,.39Z"/><path class="cls-15" d="M812.36,511.53v4.11c0,.23,.05,.45,.15,.67,.1,.21,.26,.39,.46,.53,.21,.14,.46,.21,.76,.21,.21,0,.45-.02,.71-.05v1.15c-.34,.03-.68,.05-1.03,.05-.48,0-.9-.11-1.23-.31-.34-.21-.59-.49-.77-.84s-.26-.74-.26-1.17v-4.34h-1.38v-1.13h1.38v-2.73h1.2v2.73h2.09v1.13h-2.09Z"/><path class="cls-15" d="M820.87,516.88c.39-.08,.78-.19,1.17-.34l.4,1.09c-.37,.16-.84,.29-1.41,.39-.57,.1-1.08,.16-1.55,.16-1.23,0-2.18-.33-2.86-.99-.68-.66-1.02-1.67-1.02-3.04,0-.86,.15-1.58,.45-2.18,.3-.6,.73-1.05,1.3-1.36,.57-.31,1.25-.46,2.05-.46,.7,0,1.29,.16,1.77,.49,.47,.32,.83,.75,1.05,1.27s.34,1.08,.34,1.68c0,.41-.06,.82-.17,1.23l-5.44,.04c.11,.7,.41,1.23,.88,1.59,.47,.36,1.11,.54,1.92,.54,.35,0,.72-.04,1.11-.12Zm-3.3-4.86c-.38,.43-.59,1-.64,1.73l4.23-.04c.01-.12,.02-.22,.02-.28,0-.36-.07-.69-.2-1-.13-.31-.34-.56-.63-.76s-.66-.29-1.11-.29c-.74,0-1.3,.21-1.67,.64Z"/><path class="cls-15" d="M825.72,517.7c-.57-.32-1-.78-1.3-1.37-.3-.6-.45-1.3-.45-2.12s.15-1.52,.45-2.12c.3-.61,.75-1.07,1.33-1.4s1.28-.49,2.1-.48c.43,0,.85,.03,1.26,.11,.41,.08,.76,.19,1.05,.32l-.31,1.3c-.64-.29-1.3-.43-1.98-.43-.87,0-1.5,.22-1.89,.67s-.59,1.11-.59,2,.22,1.62,.67,2.07,1.09,.68,1.95,.68c.35,0,.66-.04,.93-.11s.63-.19,1.08-.36l.4,1.19c-.44,.17-.89,.3-1.35,.39s-.9,.14-1.32,.14c-.79,0-1.46-.16-2.03-.48Z"/><path class="cls-15" d="M837.2,510.58c.45,.26,.79,.62,1.02,1.08,.23,.46,.34,.98,.34,1.58v4.77h-1.28v-4.41c0-.64-.14-1.16-.41-1.57s-.73-.61-1.35-.61c-.45,0-.87,.08-1.27,.24-.4,.16-.75,.38-1.05,.66v5.69h-1.28v-11.85h1.28v4.92c.6-.59,1.38-.88,2.33-.88,.67,0,1.23,.13,1.68,.39Z"/><path class="cls-15" d="M846.26,510.58c.45,.26,.79,.62,1.02,1.08,.23,.46,.34,.98,.34,1.58v4.77h-1.28v-4.41c0-.64-.14-1.16-.41-1.57s-.73-.61-1.36-.62c-.45,0-.87,.09-1.26,.25-.39,.16-.74,.38-1.04,.67l-.02,5.68h-1.28l.02-7.61h.95l.24,.76c.6-.64,1.41-.96,2.41-.96,.67,0,1.23,.13,1.68,.39Z"/><path class="cls-15" d="M850.07,507.76c-.17-.17-.25-.38-.25-.62s.08-.45,.25-.62c.17-.17,.38-.25,.62-.25s.45,.08,.62,.25c.17,.17,.25,.37,.25,.62s-.08,.46-.25,.62c-.17,.17-.37,.25-.62,.25s-.46-.08-.62-.25Zm-.04,2.63h1.28v7.61h-1.28v-7.61Z"/><path class="cls-15" d="M856.62,514.14l-1.44,1.59v2.27h-1.28v-11.84h1.28v7.93c.21-.32,.39-.57,.55-.73l3-3.17,1.29,.2-2.55,2.81,2.88,4.81h-1.42l-2.31-3.88Z"/></g><g><path class="cls-15" d="M415.41,508.54h-3.23v-1.74h8.53v1.74h-3.23v9.46h-2.07v-9.46Z"/><path class="cls-15" d="M428.76,515.84h-4.72l-.72,2.16h-2.24l4.15-11.2h2.45l4.09,11.2h-2.28l-.73-2.16Zm-.55-1.62l-1.62-4.83c-.02-.08-.05-.2-.09-.35s-.07-.28-.09-.4h-.03c-.01,.08-.04,.21-.09,.4s-.08,.3-.1,.35l-1.6,4.83h3.62Z"/><path class="cls-15" d="M433.25,512.42c-.2-.12-.35-.27-.46-.46s-.17-.41-.17-.65c0-.25,.06-.47,.17-.67s.27-.35,.47-.46c.2-.11,.42-.17,.67-.17s.47,.05,.67,.17c.2,.11,.35,.27,.46,.46,.11,.2,.17,.42,.17,.66s-.06,.46-.17,.66c-.11,.2-.27,.35-.47,.46s-.43,.16-.69,.16c-.24,0-.46-.06-.66-.17Zm0,5.59c-.2-.12-.35-.27-.46-.47-.11-.2-.17-.42-.17-.66,0-.25,.06-.47,.17-.67s.27-.35,.47-.46c.2-.11,.42-.17,.67-.17s.47,.05,.67,.17c.2,.11,.35,.27,.46,.46,.11,.2,.17,.42,.17,.66s-.06,.47-.17,.67-.27,.35-.47,.46c-.2,.11-.43,.17-.69,.17-.24,0-.46-.06-.66-.17Z"/><path class="cls-15" d="M443.88,507.98h-3.23v-1.19h7.77v1.19h-3.23v10.02h-1.31v-10.02Z"/><path class="cls-15" d="M454.72,516.88c.39-.08,.78-.19,1.17-.34l.4,1.09c-.37,.16-.84,.29-1.41,.39-.57,.1-1.08,.16-1.55,.16-1.23,0-2.18-.33-2.86-.99-.68-.66-1.02-1.67-1.02-3.04,0-.86,.15-1.58,.45-2.18,.3-.6,.73-1.05,1.3-1.36,.57-.31,1.25-.46,2.05-.46,.7,0,1.29,.16,1.77,.49,.47,.32,.83,.75,1.05,1.27s.34,1.08,.34,1.68c0,.41-.06,.82-.17,1.23l-5.44,.04c.11,.7,.41,1.23,.88,1.59,.47,.36,1.11,.54,1.92,.54,.35,0,.72-.04,1.11-.12Zm-3.3-4.86c-.38,.43-.59,1-.64,1.73l4.23-.04c.01-.12,.02-.22,.02-.28,0-.36-.07-.69-.2-1-.13-.31-.34-.56-.63-.76s-.66-.29-1.11-.29c-.74,0-1.3,.21-1.67,.64Z"/><path class="cls-15" d="M458.42,507.76c-.17-.17-.25-.38-.25-.62s.08-.45,.25-.62c.17-.17,.38-.25,.62-.25s.45,.08,.62,.25c.17,.17,.25,.37,.25,.62s-.08,.46-.25,.62c-.17,.17-.37,.25-.62,.25s-.46-.08-.62-.25Zm-.04,2.63h1.28v7.61h-1.28v-7.61Z"/><path class="cls-15" d="M462.25,506.16h1.28v11.84h-1.28v-11.84Z"/><path class="cls-15" d="M471.41,510.58c.45,.26,.79,.62,1.02,1.08,.23,.46,.34,.98,.34,1.58v4.77h-1.28v-4.41c0-.64-.14-1.16-.41-1.57s-.73-.61-1.36-.62c-.45,0-.87,.09-1.26,.25-.39,.16-.74,.38-1.04,.67l-.02,5.68h-1.28l.02-7.61h.95l.24,.76c.6-.64,1.41-.96,2.41-.96,.67,0,1.23,.13,1.68,.39Z"/><path class="cls-15" d="M479.89,516.88c.39-.08,.78-.19,1.17-.34l.4,1.09c-.37,.16-.84,.29-1.41,.39-.57,.1-1.08,.16-1.55,.16-1.23,0-2.18-.33-2.86-.99-.68-.66-1.02-1.67-1.02-3.04,0-.86,.15-1.58,.45-2.18,.3-.6,.73-1.05,1.3-1.36,.57-.31,1.25-.46,2.05-.46,.7,0,1.29,.16,1.77,.49,.47,.32,.83,.75,1.05,1.27s.34,1.08,.34,1.68c0,.41-.06,.82-.17,1.23l-5.44,.04c.11,.7,.41,1.23,.88,1.59,.47,.36,1.11,.54,1.92,.54,.35,0,.72-.04,1.11-.12Zm-3.3-4.86c-.38,.43-.59,1-.64,1.73l4.23-.04c.01-.12,.02-.22,.02-.28,0-.36-.07-.69-.2-1-.13-.31-.34-.56-.63-.76s-.66-.29-1.11-.29c-.74,0-1.3,.21-1.67,.64Z"/><path class="cls-15" d="M488.83,510.58c.45,.26,.79,.62,1.02,1.08,.23,.46,.34,.98,.34,1.58v4.77h-1.28v-4.41c0-.64-.14-1.16-.41-1.57s-.73-.61-1.35-.61c-.45,0-.87,.08-1.27,.24-.4,.16-.75,.38-1.05,.66v5.69h-1.28v-11.85h1.28v4.92c.6-.59,1.38-.88,2.33-.88,.67,0,1.23,.13,1.68,.39Z"/><path class="cls-15" d="M502.69,510.58c.42,.26,.73,.62,.94,1.08,.21,.46,.32,.98,.32,1.58v4.77h-1.28v-4.41c-.01-.65-.15-1.17-.41-1.57-.26-.4-.69-.61-1.28-.61-.42,0-.82,.07-1.19,.22s-.7,.35-.97,.61c.07,.32,.11,.64,.11,.98v4.77h-1.28v-4.41c-.01-.65-.15-1.17-.41-1.57-.26-.4-.69-.61-1.28-.61-.4,0-.77,.07-1.12,.22s-.67,.36-.95,.62l-.02,5.74h-1.28l.02-7.61h.95l.24,.75c.59-.64,1.36-.95,2.33-.95,.53,0,.99,.1,1.38,.3,.39,.2,.7,.48,.93,.84,.76-.76,1.67-1.14,2.72-1.14,.61,0,1.12,.13,1.54,.39Z"/><path class="cls-15" d="M511.1,516.88c.39-.08,.78-.19,1.17-.34l.4,1.09c-.37,.16-.84,.29-1.41,.39-.57,.1-1.08,.16-1.55,.16-1.23,0-2.18-.33-2.86-.99-.68-.66-1.02-1.67-1.02-3.04,0-.86,.15-1.58,.45-2.18,.3-.6,.73-1.05,1.3-1.36,.57-.31,1.25-.46,2.05-.46,.7,0,1.29,.16,1.77,.49,.47,.32,.83,.75,1.05,1.27s.34,1.08,.34,1.68c0,.41-.06,.82-.17,1.23l-5.44,.04c.11,.7,.41,1.23,.88,1.59,.47,.36,1.11,.54,1.92,.54,.35,0,.72-.04,1.11-.12Zm-3.3-4.86c-.38,.43-.59,1-.64,1.73l4.23-.04c.01-.12,.02-.22,.02-.28,0-.36-.07-.69-.2-1-.13-.31-.34-.56-.63-.76s-.66-.29-1.11-.29c-.74,0-1.3,.21-1.67,.64Z"/><path class="cls-15" d="M517.96,510.2c.23,0,.48,.02,.73,.07l-.22,1.22c-.15-.02-.29-.02-.43-.02-.81,0-1.48,.25-2.01,.75v5.79h-1.28v-7.61h.97l.17,.73c.54-.62,1.22-.93,2.06-.93Z"/><path class="cls-15" d="M525.6,518.3c-.29-.5-.5-1.02-.65-1.55-.09,.26-.26,.5-.52,.72s-.56,.39-.91,.52-.71,.19-1.08,.19c-.52,0-.98-.08-1.39-.24-.41-.16-.73-.41-.97-.75-.24-.34-.36-.76-.36-1.27s.12-.92,.37-1.28c.25-.36,.59-.64,1.04-.83,.45-.19,.98-.29,1.57-.29,.72,0,1.4,.18,2.05,.55v-.8c0-.62-.15-1.08-.44-1.37-.29-.29-.72-.43-1.3-.43-.22,0-.53,.02-.94,.05-.41,.03-.79,.08-1.14,.14l-.22-1.28c.64-.07,1.13-.12,1.5-.16s.67-.05,.91-.05c.95,0,1.67,.25,2.16,.75s.74,1.24,.74,2.23l.02,2.25c0,.77,.23,1.55,.68,2.36l-1.13,.52Zm-1.8-1.53c.31-.14,.55-.34,.71-.6,.17-.26,.25-.56,.25-.9v-.07c-.26-.15-.55-.26-.87-.34-.32-.08-.65-.12-.99-.12-.56,0-1,.1-1.34,.29s-.5,.46-.5,.81c0,.22,.07,.42,.21,.59s.33,.3,.58,.4c.25,.1,.54,.14,.87,.14,.41,0,.76-.07,1.07-.21Z"/><path class="cls-15" d="M533.74,510.58c.45,.26,.79,.62,1.02,1.08,.23,.46,.34,.98,.34,1.58v4.77h-1.28v-4.41c0-.64-.14-1.16-.41-1.57s-.73-.61-1.36-.62c-.45,0-.87,.09-1.26,.25-.39,.16-.74,.38-1.04,.67l-.02,5.68h-1.28l.02-7.61h.95l.24,.76c.6-.64,1.41-.96,2.41-.96,.67,0,1.23,.13,1.68,.39Z"/><path class="cls-15" d="M536.89,517.59l.42-1.15c.84,.38,1.55,.57,2.15,.58,1.08-.02,1.63-.37,1.63-1.07,0-.25-.07-.45-.21-.6s-.31-.28-.52-.38-.49-.2-.85-.31c-.47-.15-.86-.3-1.16-.45s-.55-.37-.76-.67-.32-.69-.32-1.18c.02-1.46,.9-2.19,2.66-2.19,.81,0,1.51,.14,2.11,.41l-.45,1.16c-.6-.27-1.15-.4-1.66-.4-.93,0-1.42,.35-1.45,1.01,0,.2,.06,.36,.19,.49,.12,.13,.28,.23,.46,.32,.18,.08,.44,.18,.78,.29,.5,.16,.9,.31,1.21,.47,.32,.16,.59,.4,.82,.73,.23,.32,.34,.76,.34,1.29,0,1.5-.95,2.25-2.84,2.25-.82,0-1.68-.21-2.57-.61Z"/><path class="cls-15" d="M545.49,517.7c-.57-.32-1-.78-1.3-1.37-.3-.6-.45-1.3-.45-2.12s.15-1.52,.45-2.12c.3-.61,.75-1.07,1.33-1.4s1.28-.49,2.1-.48c.43,0,.85,.03,1.26,.11,.41,.08,.76,.19,1.05,.32l-.31,1.3c-.64-.29-1.3-.43-1.98-.43-.87,0-1.5,.22-1.89,.67s-.59,1.11-.59,2,.22,1.62,.67,2.07,1.09,.68,1.95,.68c.35,0,.66-.04,.93-.11s.63-.19,1.08-.36l.4,1.19c-.44,.17-.89,.3-1.35,.39s-.9,.14-1.32,.14c-.79,0-1.46-.16-2.03-.48Z"/><path class="cls-15" d="M556.97,510.58c.45,.26,.79,.62,1.02,1.08,.23,.46,.34,.98,.34,1.58v4.77h-1.28v-4.41c0-.64-.14-1.16-.41-1.57s-.73-.61-1.35-.61c-.45,0-.87,.08-1.27,.24-.4,.16-.75,.38-1.05,.66v5.69h-1.28v-11.85h1.28v4.92c.6-.59,1.38-.88,2.33-.88,.67,0,1.23,.13,1.68,.39Z"/><path class="cls-15" d="M560.75,506.16h1.28v11.84h-1.28v-11.84Z"/><path class="cls-15" d="M570.64,518.3c-.3-.54-.52-1.05-.64-1.53-.08,.21-.23,.43-.45,.64-.22,.21-.51,.39-.86,.54-.35,.14-.75,.22-1.2,.22-.73,0-1.33-.14-1.78-.43-.45-.29-.78-.66-.97-1.11-.19-.46-.29-.96-.29-1.5v-4.73h1.28v4.33c0,.68,.14,1.23,.43,1.64,.28,.41,.82,.62,1.61,.62,.59,0,1.08-.14,1.46-.42,.39-.28,.58-.74,.58-1.39v-4.78h1.28v5.03c0,.77,.23,1.55,.68,2.36l-1.13,.52Z"/><path class="cls-15" d="M573.05,517.59l.42-1.15c.84,.38,1.55,.57,2.15,.58,1.08-.02,1.63-.37,1.63-1.07,0-.25-.07-.45-.21-.6s-.31-.28-.52-.38-.49-.2-.85-.31c-.47-.15-.86-.3-1.16-.45s-.55-.37-.76-.67-.32-.69-.32-1.18c.02-1.46,.9-2.19,2.66-2.19,.81,0,1.51,.14,2.11,.41l-.45,1.16c-.6-.27-1.15-.4-1.66-.4-.93,0-1.42,.35-1.45,1.01,0,.2,.06,.36,.19,.49,.12,.13,.28,.23,.46,.32,.18,.08,.44,.18,.78,.29,.5,.16,.9,.31,1.21,.47,.32,.16,.59,.4,.82,.73,.23,.32,.34,.76,.34,1.29,0,1.5-.95,2.25-2.84,2.25-.82,0-1.68-.21-2.57-.61Z"/><path class="cls-15" d="M579.84,517.59l.42-1.15c.84,.38,1.55,.57,2.15,.58,1.08-.02,1.63-.37,1.63-1.07,0-.25-.07-.45-.21-.6s-.31-.28-.52-.38-.49-.2-.85-.31c-.47-.15-.86-.3-1.16-.45s-.55-.37-.76-.67-.32-.69-.32-1.18c.02-1.46,.9-2.19,2.66-2.19,.81,0,1.51,.14,2.11,.41l-.45,1.16c-.6-.27-1.15-.4-1.66-.4-.93,0-1.42,.35-1.45,1.01,0,.2,.06,.36,.19,.49,.12,.13,.28,.23,.46,.32,.18,.08,.44,.18,.78,.29,.5,.16,.9,.31,1.21,.47,.32,.16,.59,.4,.82,.73,.23,.32,.34,.76,.34,1.29,0,1.5-.95,2.25-2.84,2.25-.82,0-1.68-.21-2.57-.61Z"/></g></svg>